<svg id="Layer_1" data-name="Layer 1" xmlns="http://www.w3.org/2000/svg" xmlns:xlink="http://www.w3.org/1999/xlink" viewBox="0 0 762.01 212"><defs><style>.cls-1{fill:none;}.cls-2{fill:#4fe3ea;}.cls-3{clip-path:url(#clip-path);}.cls-4{fill:#287175;}.cls-5{fill:#287276;}.cls-6{fill:#297478;}.cls-7{fill:#297579;}.cls-8{fill:#2a777b;}.cls-9{fill:#2a787c;}.cls-10{fill:#2b797e;}.cls-11{fill:#2b7b7f;}.cls-12{fill:#2c7c80;}.cls-13{fill:#2c7d82;}.cls-14{fill:#2d7f83;}.cls-15{fill:#2d8084;}.cls-16{fill:#2e8186;}.cls-17{fill:#2e8387;}.cls-18{fill:#2f8489;}.cls-19{fill:#2f858a;}.cls-20{fill:#2f878b;}.cls-21{fill:#30888d;}.cls-22{fill:#30898e;}.cls-23{fill:#318b8f;}.cls-24{fill:#318c91;}.cls-25{fill:#328d92;}.cls-26{fill:#328f93;}.cls-27{fill:#339095;}.cls-28{fill:#339196;}.cls-29{fill:#339297;}.cls-30{fill:#349498;}.cls-31{fill:#34959a;}.cls-32{fill:#35969b;}.cls-33{fill:#35979c;}.cls-34{fill:#36999e;}.cls-35{fill:#369a9f;}.cls-36{fill:#369ba0;}.cls-37{fill:#379ca1;}.cls-38{fill:#379da3;}.cls-39{fill:#389fa4;}.cls-40{fill:#38a0a5;}.cls-41{fill:#38a1a6;}.cls-42{fill:#39a2a8;}.cls-43{fill:#39a3a9;}.cls-44{fill:#3aa5aa;}.cls-45{fill:#3aa6ab;}.cls-46{fill:#3aa7ac;}.cls-47{fill:#3ba8ae;}.cls-48{fill:#3ba9af;}.cls-49{fill:#3caab0;}.cls-50{fill:#3cabb1;}.cls-51{fill:#3cadb2;}.cls-52{fill:#3daeb3;}.cls-53{fill:#3dafb4;}.cls-54{fill:#3eb0b6;}.cls-55{fill:#3eb1b7;}.cls-56{fill:#3eb2b8;}.cls-57{fill:#3fb3b9;}.cls-58{fill:#3fb4ba;}.cls-59{fill:#3fb5bb;}.cls-60{fill:#40b6bc;}.cls-61{fill:#40b7bd;}.cls-62{fill:#40b9be;}.cls-63{fill:#41babf;}.cls-64{fill:#41bbc1;}.cls-65{fill:#42bcc2;}.cls-66{fill:#42bdc3;}.cls-67{fill:#42bec4;}.cls-68{fill:#43bfc5;}.cls-69{fill:#43c0c6;}.cls-70{fill:#43c1c7;}.cls-71{fill:#44c2c8;}.cls-72{fill:#44c3c9;}.cls-73{fill:#44c4ca;}.cls-74{fill:#45c4cb;}.cls-75{fill:#45c5cc;}.cls-76{fill:#45c6cd;}.cls-77{fill:#46c7ce;}.cls-78{fill:#46c8ce;}.cls-79{fill:#46c9cf;}.cls-80{fill:#46cad0;}.cls-81{fill:#47cbd1;}.cls-82{fill:#47ccd2;}.cls-83{fill:#47cdd3;}.cls-84{fill:#48cdd4;}.cls-85{fill:#48ced5;}.cls-86{fill:#48cfd6;}.cls-87{fill:#48d0d6;}.cls-88{fill:#49d1d7;}.cls-89{fill:#49d2d8;}.cls-90{fill:#49d2d9;}.cls-91{fill:#4ad3da;}.cls-92{fill:#4ad4db;}.cls-93{fill:#4ad5db;}.cls-94{fill:#4ad5dc;}.cls-95{fill:#4bd6dd;}.cls-96{fill:#4bd7de;}.cls-97{fill:#4bd8de;}.cls-98{fill:#4bd8df;}.cls-99{fill:#4cd9e0;}.cls-100{fill:#4cdae0;}.cls-101{fill:#4cdae1;}.cls-102{fill:#4cdbe2;}.cls-103{fill:#4cdce2;}.cls-104{fill:#4ddce3;}.cls-105{fill:#4ddde4;}.cls-106{fill:#4ddee5;}.cls-107{fill:#4edfe6;}.cls-108{fill:#4ee0e6;}.cls-109{fill:#4ee0e7;}.cls-110{fill:#4ee1e8;}.cls-111{fill:#4fe2e9;}.cls-112{fill:url(#linear-gradient);}.cls-113{fill:url(#linear-gradient-2);}</style><clipPath id="clip-path" transform="translate(-384.99 -278)"><path class="cls-1" d="M477.66,280.88a52,52,0,0,0-21.45,34.59H388a37.49,37.49,0,0,1,37.36-34.59h52.32M488.79,278H425.34A40.36,40.36,0,0,0,385,318.35h73.76a49.28,49.28,0,0,1,30-40.35Z"/></clipPath><linearGradient id="linear-gradient" x1="555.46" y1="355.18" x2="492.79" y2="355.18" gradientUnits="userSpaceOnUse"><stop offset="0" stop-color="#287175"/><stop offset="0.22" stop-color="#2f858a"/><stop offset="0.67" stop-color="#41b9bf"/><stop offset="1" stop-color="#4fe3ea"/></linearGradient><linearGradient id="linear-gradient-2" x1="481.31" y1="388.79" x2="481.31" y2="429.31" gradientUnits="userSpaceOnUse"><stop offset="0" stop-color="#287175"/><stop offset="0.08" stop-color="#2c7c81"/><stop offset="0.51" stop-color="#3fb4b9"/><stop offset="0.83" stop-color="#4bd6dd"/><stop offset="1" stop-color="#4fe3ea"/></linearGradient></defs><path class="cls-2" d="M570.68,338.89a70,70,0,0,1,26.78,5.19v42.34c-6.05-4.32-12.38-6.63-18.72-6.63-13.83,0-22.47,9.8-22.47,25.07v64.49a18.16,18.16,0,0,1-18.17,18.17H508.75V404.57C508.75,363.66,532.08,338.89,570.68,338.89Z" transform="translate(-384.99 -278)"/><path class="cls-2" d="M628.05,278c15.55,0,27.07,10.66,27.07,25.35S643.6,328.7,628.05,328.7,601,318,601,303.35,612.49,278,628.05,278Zm-23.62,63.66h47V459.38a26.88,26.88,0,0,1-26.88,26.88H604.43Z" transform="translate(-384.99 -278)"/><path class="cls-2" d="M657.82,341.66h47.24V443.34c30-9.8,47-35.72,47-73.17V341.66h47.24v28.51c0,70.57-44.94,116.09-114.93,116.09h-26.5Z" transform="translate(-384.99 -278)"/><path class="cls-2" d="M829.2,278c15.55,0,27.07,10.66,27.07,25.35S844.75,328.7,829.2,328.7,802.12,318,802.12,303.35,813.64,278,829.2,278Zm-23.62,63.66h46.95V459.38a26.88,26.88,0,0,1-26.88,26.88H805.58Z" transform="translate(-384.99 -278)"/><path class="cls-2" d="M857.7,439.59c0-28.8,22.18-49.54,53.58-49.54,15,0,27.36,4.9,35.43,14.11-.29-19-14.11-31.11-36.58-31.11-10.37,0-20.16,3.17-31.4,9.22V346.55a99.45,99.45,0,0,1,41.48-8.64c45.22,0,72,24.78,71.72,63.95v57.52a26.88,26.88,0,0,1-26.87,26.88H948.44V473.58C940.66,484.53,928.28,490,911.86,490,879.88,490,857.7,469.26,857.7,439.59Zm69.71,17.86c13,0,21.89-8.35,21.89-20.16,0-11.52-8.93-19.59-21.89-19.59s-21.89,8.07-21.89,19.59C905.52,449.1,914.45,457.45,927.41,457.45Z" transform="translate(-384.99 -278)"/><path class="cls-2" d="M996.65,413.09c0-42.92,32.26-75.47,76.62-75.47,34.27,0,62.79,20.17,73.74,52.72l-76.34,53.86a47.11,47.11,0,0,0,14.41,2c12.67,0,25.06-5.19,39.46-16.13v47c-15.84,8.93-30,13-45.8,13C1031.5,490,996.65,457.74,996.65,413.09Zm48.68,8.64L1098,383.14c-6-5.76-14.12-8.65-23.33-8.65-19.3,0-32,13-32,32.84A38.75,38.75,0,0,0,1045.33,421.73Z" transform="translate(-384.99 -278)"/><g class="cls-3"><path class="cls-4" d="M385,278v0Z" transform="translate(-384.99 -278)"/><rect class="cls-4" width="0.89" height="40.35"/><rect class="cls-5" x="0.89" width="0.89" height="40.35"/><rect class="cls-6" x="1.77" width="0.89" height="40.35"/><rect class="cls-7" x="2.66" width="0.89" height="40.35"/><rect class="cls-8" x="3.55" width="0.89" height="40.35"/><rect class="cls-9" x="4.44" width="0.89" height="40.35"/><rect class="cls-10" x="5.32" width="0.89" height="40.35"/><rect class="cls-11" x="6.21" width="0.89" height="40.35"/><rect class="cls-12" x="7.1" width="0.89" height="40.35"/><rect class="cls-13" x="7.98" width="0.89" height="40.35"/><rect class="cls-14" x="8.87" width="0.89" height="40.35"/><rect class="cls-15" x="9.76" width="0.89" height="40.35"/><rect class="cls-16" x="10.65" width="0.89" height="40.35"/><rect class="cls-17" x="11.53" width="0.89" height="40.35"/><rect class="cls-18" x="12.42" width="0.89" height="40.35"/><rect class="cls-19" x="13.31" width="0.89" height="40.35"/><rect class="cls-20" x="14.19" width="0.89" height="40.35"/><rect class="cls-21" x="15.08" width="0.89" height="40.35"/><rect class="cls-22" x="15.97" width="0.89" height="40.35"/><rect class="cls-23" x="16.86" width="0.89" height="40.35"/><rect class="cls-24" x="17.74" width="0.89" height="40.35"/><rect class="cls-25" x="18.63" width="0.89" height="40.35"/><rect class="cls-26" x="19.52" width="0.89" height="40.35"/><rect class="cls-27" x="20.4" width="0.89" height="40.35"/><rect class="cls-28" x="21.29" width="0.89" height="40.35"/><rect class="cls-29" x="22.18" width="0.89" height="40.35"/><rect class="cls-30" x="23.07" width="0.89" height="40.35"/><rect class="cls-31" x="23.95" width="0.89" height="40.35"/><rect class="cls-32" x="24.84" width="0.89" height="40.35"/><rect class="cls-33" x="25.73" width="0.89" height="40.35"/><rect class="cls-34" x="26.61" width="0.89" height="40.35"/><rect class="cls-35" x="27.5" width="0.89" height="40.35"/><rect class="cls-36" x="28.39" width="0.89" height="40.35"/><rect class="cls-37" x="29.28" width="0.89" height="40.35"/><rect class="cls-38" x="30.16" width="0.89" height="40.35"/><rect class="cls-39" x="31.05" width="0.89" height="40.35"/><rect class="cls-40" x="31.94" width="0.89" height="40.35"/><rect class="cls-41" x="32.83" width="0.89" height="40.35"/><rect class="cls-42" x="33.71" width="0.89" height="40.35"/><rect class="cls-43" x="34.6" width="0.89" height="40.35"/><rect class="cls-44" x="35.49" width="0.89" height="40.35"/><rect class="cls-45" x="36.37" width="0.89" height="40.35"/><rect class="cls-46" x="37.26" width="0.89" height="40.35"/><rect class="cls-47" x="38.15" width="0.89" height="40.35"/><rect class="cls-48" x="39.04" width="0.89" height="40.35"/><rect class="cls-49" x="39.92" width="0.89" height="40.35"/><rect class="cls-50" x="40.81" width="0.89" height="40.35"/><rect class="cls-51" x="41.7" width="0.89" height="40.35"/><rect class="cls-52" x="42.58" width="0.89" height="40.35"/><rect class="cls-53" x="43.47" width="0.89" height="40.35"/><rect class="cls-54" x="44.36" width="0.89" height="40.35"/><rect class="cls-55" x="45.25" width="0.89" height="40.35"/><rect class="cls-56" x="46.13" width="0.89" height="40.35"/><rect class="cls-57" x="47.02" width="0.89" height="40.35"/><rect class="cls-58" x="47.91" width="0.89" height="40.35"/><rect class="cls-59" x="48.79" width="0.89" height="40.35"/><rect class="cls-60" x="49.68" width="0.89" height="40.35"/><rect class="cls-61" x="50.57" width="0.89" height="40.35"/><rect class="cls-62" x="51.46" width="0.89" height="40.35"/><rect class="cls-63" x="52.34" width="0.89" height="40.35"/><rect class="cls-64" x="53.23" width="0.89" height="40.35"/><rect class="cls-65" x="54.12" width="0.89" height="40.35"/><rect class="cls-66" x="55" width="0.89" height="40.35"/><rect class="cls-67" x="55.89" width="0.89" height="40.35"/><rect class="cls-68" x="56.78" width="0.89" height="40.35"/><rect class="cls-69" x="57.67" width="0.89" height="40.35"/><rect class="cls-70" x="58.55" width="0.89" height="40.35"/><rect class="cls-71" x="59.44" width="0.89" height="40.35"/><rect class="cls-72" x="60.33" width="0.89" height="40.35"/><rect class="cls-73" x="61.21" width="0.89" height="40.35"/><rect class="cls-74" x="62.1" width="0.89" height="40.35"/><rect class="cls-75" x="62.99" width="0.89" height="40.35"/><rect class="cls-76" x="63.88" width="0.89" height="40.35"/><rect class="cls-77" x="64.76" width="0.89" height="40.35"/><rect class="cls-78" x="65.65" width="0.89" height="40.35"/><rect class="cls-79" x="66.54" width="0.89" height="40.35"/><rect class="cls-80" x="67.42" width="0.89" height="40.35"/><rect class="cls-81" x="68.31" width="0.89" height="40.35"/><rect class="cls-82" x="69.2" width="0.89" height="40.35"/><rect class="cls-83" x="70.09" width="0.89" height="40.35"/><rect class="cls-84" x="70.97" width="0.89" height="40.35"/><rect class="cls-85" x="71.86" width="0.89" height="40.35"/><rect class="cls-86" x="72.75" width="0.89" height="40.35"/><rect class="cls-87" x="73.63" width="0.89" height="40.35"/><rect class="cls-88" x="74.52" width="0.89" height="40.35"/><rect class="cls-89" x="75.41" width="0.89" height="40.35"/><rect class="cls-90" x="76.3" width="0.89" height="40.35"/><rect class="cls-91" x="77.18" width="0.89" height="40.35"/><rect class="cls-92" x="78.07" width="0.89" height="40.35"/><rect class="cls-93" x="78.96" width="0.89" height="40.35"/><rect class="cls-94" x="79.84" width="0.89" height="40.35"/><rect class="cls-95" x="80.73" width="0.89" height="40.35"/><rect class="cls-96" x="81.62" width="0.89" height="40.35"/><rect class="cls-97" x="82.51" width="0.89" height="40.35"/><rect class="cls-98" x="83.39" width="0.89" height="40.35"/><rect class="cls-99" x="84.28" width="0.89" height="40.35"/><rect class="cls-100" x="85.17" width="0.89" height="40.35"/><rect class="cls-101" x="86.05" width="0.89" height="40.35"/><rect class="cls-102" x="86.94" width="0.89" height="40.35"/><rect class="cls-103" x="87.83" width="0.89" height="40.35"/><rect class="cls-104" x="88.72" width="0.89" height="40.35"/><rect class="cls-105" x="89.6" width="0.89" height="40.35"/><rect class="cls-105" x="90.49" width="0.89" height="40.35"/><rect class="cls-106" x="91.38" width="0.89" height="40.35"/><rect class="cls-106" x="92.27" width="0.89" height="40.35"/><rect class="cls-107" x="93.15" width="0.89" height="40.35"/><rect class="cls-108" x="94.04" width="0.89" height="40.35"/><rect class="cls-109" x="94.93" width="0.89" height="40.35"/><rect class="cls-109" x="95.81" width="0.89" height="40.35"/><rect class="cls-110" x="96.7" width="0.89" height="40.35"/><rect class="cls-110" x="97.59" width="0.89" height="40.35"/><rect class="cls-111" x="98.48" width="0.89" height="40.35"/><rect class="cls-111" x="99.36" width="0.89" height="40.35"/><rect class="cls-111" x="100.25" width="0.89" height="40.35"/><rect class="cls-2" x="101.14" width="0.89" height="40.35"/><rect class="cls-2" x="102.02" width="0.89" height="40.35"/><rect class="cls-2" x="102.91" width="0.89" height="40.35"/><rect class="cls-2" x="103.8" height="40.35"/><rect class="cls-7" x="2.99" y="2.88" width="0.56" height="34.59"/><rect class="cls-8" x="3.55" y="2.88" width="0.89" height="34.59"/><rect class="cls-9" x="4.44" y="2.88" width="0.89" height="34.59"/><rect class="cls-10" x="5.32" y="2.88" width="0.89" height="34.59"/><rect class="cls-11" x="6.21" y="2.88" width="0.89" height="34.59"/><rect class="cls-12" x="7.1" y="2.88" width="0.89" height="34.59"/><rect class="cls-13" x="7.98" y="2.88" width="0.89" height="34.59"/><rect class="cls-14" x="8.87" y="2.88" width="0.89" height="34.59"/><rect class="cls-15" x="9.76" y="2.88" width="0.89" height="34.59"/><rect class="cls-16" x="10.65" y="2.88" width="0.89" height="34.59"/><rect class="cls-17" x="11.53" y="2.88" width="0.89" height="34.59"/><rect class="cls-18" x="12.42" y="2.88" width="0.89" height="34.59"/><rect class="cls-19" x="13.31" y="2.88" width="0.89" height="34.59"/><rect class="cls-20" x="14.19" y="2.88" width="0.89" height="34.59"/><rect class="cls-21" x="15.08" y="2.88" width="0.89" height="34.59"/><rect class="cls-22" x="15.97" y="2.88" width="0.89" height="34.59"/><rect class="cls-23" x="16.86" y="2.88" width="0.89" height="34.59"/><rect class="cls-24" x="17.74" y="2.88" width="0.89" height="34.59"/><rect class="cls-25" x="18.63" y="2.88" width="0.89" height="34.59"/><rect class="cls-26" x="19.52" y="2.88" width="0.89" height="34.59"/><rect class="cls-27" x="20.4" y="2.88" width="0.89" height="34.59"/><rect class="cls-28" x="21.29" y="2.88" width="0.89" height="34.59"/><rect class="cls-29" x="22.18" y="2.88" width="0.89" height="34.59"/><rect class="cls-30" x="23.07" y="2.88" width="0.89" height="34.59"/><rect class="cls-31" x="23.95" y="2.88" width="0.89" height="34.59"/><rect class="cls-32" x="24.84" y="2.88" width="0.89" height="34.59"/><rect class="cls-33" x="25.73" y="2.88" width="0.89" height="34.59"/><rect class="cls-34" x="26.61" y="2.88" width="0.89" height="34.59"/><rect class="cls-35" x="27.5" y="2.88" width="0.89" height="34.59"/><rect class="cls-36" x="28.39" y="2.88" width="0.89" height="34.59"/><rect class="cls-37" x="29.28" y="2.88" width="0.89" height="34.59"/><rect class="cls-38" x="30.16" y="2.88" width="0.89" height="34.59"/><rect class="cls-39" x="31.05" y="2.88" width="0.89" height="34.59"/><rect class="cls-40" x="31.94" y="2.88" width="0.89" height="34.59"/><rect class="cls-41" x="32.83" y="2.88" width="0.89" height="34.59"/><rect class="cls-42" x="33.71" y="2.88" width="0.89" height="34.59"/><rect class="cls-43" x="34.6" y="2.88" width="0.89" height="34.59"/><rect class="cls-44" x="35.49" y="2.88" width="0.89" height="34.59"/><rect class="cls-45" x="36.37" y="2.88" width="0.89" height="34.59"/><rect class="cls-46" x="37.26" y="2.88" width="0.89" height="34.59"/><rect class="cls-47" x="38.15" y="2.88" width="0.89" height="34.59"/><rect class="cls-48" x="39.04" y="2.88" width="0.89" height="34.59"/><rect class="cls-49" x="39.92" y="2.88" width="0.89" height="34.59"/><rect class="cls-50" x="40.81" y="2.88" width="0.89" height="34.59"/><rect class="cls-51" x="41.7" y="2.88" width="0.89" height="34.59"/><rect class="cls-52" x="42.58" y="2.88" width="0.89" height="34.59"/><rect class="cls-53" x="43.47" y="2.88" width="0.89" height="34.59"/><rect class="cls-54" x="44.36" y="2.88" width="0.89" height="34.59"/><rect class="cls-55" x="45.25" y="2.88" width="0.89" height="34.59"/><rect class="cls-56" x="46.13" y="2.88" width="0.89" height="34.59"/><rect class="cls-57" x="47.02" y="2.88" width="0.89" height="34.59"/><rect class="cls-58" x="47.91" y="2.88" width="0.89" height="34.59"/><rect class="cls-59" x="48.79" y="2.88" width="0.89" height="34.59"/><rect class="cls-60" x="49.68" y="2.88" width="0.89" height="34.59"/><rect class="cls-61" x="50.57" y="2.88" width="0.89" height="34.59"/><rect class="cls-62" x="51.46" y="2.88" width="0.89" height="34.59"/><rect class="cls-63" x="52.34" y="2.88" width="0.89" height="34.59"/><rect class="cls-64" x="53.23" y="2.88" width="0.89" height="34.59"/><rect class="cls-65" x="54.12" y="2.88" width="0.89" height="34.59"/><rect class="cls-66" x="55" y="2.88" width="0.89" height="34.59"/><rect class="cls-67" x="55.89" y="2.88" width="0.89" height="34.59"/><rect class="cls-68" x="56.78" y="2.88" width="0.89" height="34.59"/><rect class="cls-69" x="57.67" y="2.88" width="0.89" height="34.59"/><rect class="cls-70" x="58.55" y="2.88" width="0.89" height="34.59"/><rect class="cls-71" x="59.44" y="2.88" width="0.89" height="34.59"/><rect class="cls-72" x="60.33" y="2.88" width="0.89" height="34.59"/><rect class="cls-73" x="61.21" y="2.88" width="0.89" height="34.59"/><rect class="cls-74" x="62.1" y="2.88" width="0.89" height="34.59"/><rect class="cls-75" x="62.99" y="2.88" width="0.89" height="34.59"/><rect class="cls-76" x="63.88" y="2.88" width="0.89" height="34.59"/><rect class="cls-77" x="64.76" y="2.88" width="0.89" height="34.59"/><rect class="cls-78" x="65.65" y="2.88" width="0.89" height="34.59"/><rect class="cls-79" x="66.54" y="2.88" width="0.89" height="34.59"/><rect class="cls-80" x="67.42" y="2.88" width="0.89" height="34.59"/><rect class="cls-81" x="68.31" y="2.88" width="0.89" height="34.59"/><rect class="cls-82" x="69.2" y="2.88" width="0.89" height="34.59"/><rect class="cls-83" x="70.09" y="2.88" width="0.89" height="34.59"/><rect class="cls-84" x="70.97" y="2.88" width="0.89" height="34.59"/><rect class="cls-85" x="71.86" y="2.88" width="0.89" height="34.59"/><rect class="cls-86" x="72.75" y="2.88" width="0.89" height="34.59"/><rect class="cls-87" x="73.63" y="2.88" width="0.89" height="34.59"/><rect class="cls-88" x="74.52" y="2.88" width="0.89" height="34.59"/><rect class="cls-89" x="75.41" y="2.88" width="0.89" height="34.59"/><rect class="cls-90" x="76.3" y="2.88" width="0.89" height="34.59"/><rect class="cls-91" x="77.18" y="2.88" width="0.89" height="34.59"/><rect class="cls-92" x="78.07" y="2.88" width="0.89" height="34.59"/><rect class="cls-93" x="78.96" y="2.88" width="0.89" height="34.59"/><rect class="cls-94" x="79.84" y="2.88" width="0.89" height="34.59"/><rect class="cls-95" x="80.73" y="2.88" width="0.89" height="34.59"/><rect class="cls-96" x="81.62" y="2.88" width="0.89" height="34.59"/><rect class="cls-97" x="82.51" y="2.88" width="0.89" height="34.59"/><rect class="cls-98" x="83.39" y="2.88" width="0.89" height="34.59"/><rect class="cls-99" x="84.28" y="2.88" width="0.89" height="34.59"/><rect class="cls-100" x="85.17" y="2.88" width="0.89" height="34.59"/><rect class="cls-101" x="86.05" y="2.88" width="0.89" height="34.59"/><rect class="cls-102" x="86.94" y="2.88" width="0.89" height="34.59"/><rect class="cls-103" x="87.83" y="2.88" width="0.89" height="34.59"/><rect class="cls-104" x="88.72" y="2.88" width="0.89" height="34.59"/><rect class="cls-105" x="89.6" y="2.88" width="0.89" height="34.59"/><rect class="cls-105" x="90.49" y="2.88" width="0.89" height="34.59"/><rect class="cls-106" x="91.38" y="2.88" width="0.89" height="34.59"/><rect class="cls-106" x="92.27" y="2.88" width="0.4" height="34.59"/></g><path class="cls-112" d="M575.22,278a40.36,40.36,0,0,1-40.35,40.35H501.48v114a49.34,49.34,0,0,0-40.35-43.57V318.53c.07-.67.15-1.34.24-2A49.35,49.35,0,0,1,491.19,278Z" transform="translate(-384.99 -278)"/><path class="cls-113" d="M501.48,432.36V486a40.36,40.36,0,0,1-40.35-40.35V388.79a49.36,49.36,0,0,1,40.11,41.56C501.33,431,501.42,431.68,501.48,432.36Z" transform="translate(-384.99 -278)"/></svg>