<?xml version="1.0" encoding="utf-8"?>
<!-- Generator: Adobe Illustrator 26.0.1, SVG Export Plug-In . SVG Version: 6.00 Build 0)  -->
<svg version="1.1" id="Layer_1" xmlns="http://www.w3.org/2000/svg" xmlns:xlink="http://www.w3.org/1999/xlink" x="0px" y="0px"
	 viewBox="0 0 32 32" style="enable-background:new 0 0 32 32;" xml:space="preserve">
<style type="text/css">
	.st0{fill:url(#SVGID_1_);}
	.st1{clip-path:url(#SVGID_00000087384671762514072940000008039903532731126709_);fill:#FFFFFF;}
	.st2{fill:#FFFFFF;}
</style>
<g>
	<g>
		<linearGradient id="SVGID_1_" gradientUnits="userSpaceOnUse" x1="0.9916" y1="16" x2="31.0084" y2="16">
			<stop  offset="0" style="stop-color:#287175"/>
			<stop  offset="0.2705" style="stop-color:#349398"/>
			<stop  offset="0.7637" style="stop-color:#47CDD3"/>
			<stop  offset="1" style="stop-color:#4FE3EA"/>
		</linearGradient>
		<path class="st0" d="M26.92,31.01H5.08c-2.26,0-4.08-1.83-4.08-4.08V5.08c0-2.26,1.83-4.08,4.08-4.08h21.85
			c2.26,0,4.08,1.83,4.08,4.08v21.85C31.01,29.18,29.18,31.01,26.92,31.01z"/>
	</g>
	<g>
		<g>
			<g>
				<g>
					<defs>
						<path id="SVGID_00000075857450468981736820000015200259699123138727_" d="M15.71,4.14c-1.34,0.95-2.26,2.41-2.52,4.06h-8
							c0.08-1.05,0.52-2.02,1.27-2.77C7.3,4.59,8.41,4.14,9.58,4.14H15.71 M17.02,3.8H9.58c-1.31,0-2.49,0.53-3.35,1.39
							C5.38,6.04,4.85,7.22,4.85,8.53h8.65C13.71,6.39,15.1,4.6,17.02,3.8L17.02,3.8z"/>
					</defs>
					<use xlink:href="#SVGID_00000075857450468981736820000015200259699123138727_"  style="overflow:visible;fill:#FFFFFF;"/>
					<clipPath id="SVGID_00000089556897288553860710000005773524418056317832_">
						<use xlink:href="#SVGID_00000075857450468981736820000015200259699123138727_"  style="overflow:visible;"/>
					</clipPath>
					<path style="clip-path:url(#SVGID_00000089556897288553860710000005773524418056317832_);fill:#FFFFFF;" d="M4.85,3.8v4.73V3.8
						z"/>
					
						<rect x="4.85" y="3.8" style="clip-path:url(#SVGID_00000089556897288553860710000005773524418056317832_);fill:#FFFFFF;" width="0.1" height="4.73"/>
					
						<rect x="4.95" y="3.8" style="clip-path:url(#SVGID_00000089556897288553860710000005773524418056317832_);fill:#FFFFFF;" width="0.1" height="4.73"/>
					
						<rect x="5.06" y="3.8" style="clip-path:url(#SVGID_00000089556897288553860710000005773524418056317832_);fill:#FFFFFF;" width="0.1" height="4.73"/>
					
						<rect x="5.16" y="3.8" style="clip-path:url(#SVGID_00000089556897288553860710000005773524418056317832_);fill:#FFFFFF;" width="0.1" height="4.73"/>
					
						<rect x="5.26" y="3.8" style="clip-path:url(#SVGID_00000089556897288553860710000005773524418056317832_);fill:#FFFFFF;" width="0.1" height="4.73"/>
					
						<rect x="5.37" y="3.8" style="clip-path:url(#SVGID_00000089556897288553860710000005773524418056317832_);fill:#FFFFFF;" width="0.1" height="4.73"/>
					
						<rect x="5.47" y="3.8" style="clip-path:url(#SVGID_00000089556897288553860710000005773524418056317832_);fill:#FFFFFF;" width="0.1" height="4.73"/>
					
						<rect x="5.58" y="3.8" style="clip-path:url(#SVGID_00000089556897288553860710000005773524418056317832_);fill:#FFFFFF;" width="0.1" height="4.73"/>
					
						<rect x="5.68" y="3.8" style="clip-path:url(#SVGID_00000089556897288553860710000005773524418056317832_);fill:#FFFFFF;" width="0.1" height="4.73"/>
					
						<rect x="5.78" y="3.8" style="clip-path:url(#SVGID_00000089556897288553860710000005773524418056317832_);fill:#FFFFFF;" width="0.1" height="4.73"/>
					
						<rect x="5.89" y="3.8" style="clip-path:url(#SVGID_00000089556897288553860710000005773524418056317832_);fill:#FFFFFF;" width="0.1" height="4.73"/>
					
						<rect x="5.99" y="3.8" style="clip-path:url(#SVGID_00000089556897288553860710000005773524418056317832_);fill:#FFFFFF;" width="0.1" height="4.73"/>
					
						<rect x="6.1" y="3.8" style="clip-path:url(#SVGID_00000089556897288553860710000005773524418056317832_);fill:#FFFFFF;" width="0.1" height="4.73"/>
					
						<rect x="6.2" y="3.8" style="clip-path:url(#SVGID_00000089556897288553860710000005773524418056317832_);fill:#FFFFFF;" width="0.1" height="4.73"/>
					
						<rect x="6.3" y="3.8" style="clip-path:url(#SVGID_00000089556897288553860710000005773524418056317832_);fill:#FFFFFF;" width="0.1" height="4.73"/>
					
						<rect x="6.41" y="3.8" style="clip-path:url(#SVGID_00000089556897288553860710000005773524418056317832_);fill:#FFFFFF;" width="0.1" height="4.73"/>
					
						<rect x="6.51" y="3.8" style="clip-path:url(#SVGID_00000089556897288553860710000005773524418056317832_);fill:#FFFFFF;" width="0.1" height="4.73"/>
					
						<rect x="6.62" y="3.8" style="clip-path:url(#SVGID_00000089556897288553860710000005773524418056317832_);fill:#FFFFFF;" width="0.1" height="4.73"/>
					
						<rect x="6.72" y="3.8" style="clip-path:url(#SVGID_00000089556897288553860710000005773524418056317832_);fill:#FFFFFF;" width="0.1" height="4.73"/>
					
						<rect x="6.82" y="3.8" style="clip-path:url(#SVGID_00000089556897288553860710000005773524418056317832_);fill:#FFFFFF;" width="0.1" height="4.73"/>
					
						<rect x="6.93" y="3.8" style="clip-path:url(#SVGID_00000089556897288553860710000005773524418056317832_);fill:#FFFFFF;" width="0.1" height="4.73"/>
					
						<rect x="7.03" y="3.8" style="clip-path:url(#SVGID_00000089556897288553860710000005773524418056317832_);fill:#FFFFFF;" width="0.1" height="4.73"/>
					
						<rect x="7.14" y="3.8" style="clip-path:url(#SVGID_00000089556897288553860710000005773524418056317832_);fill:#FFFFFF;" width="0.1" height="4.73"/>
					
						<rect x="7.24" y="3.8" style="clip-path:url(#SVGID_00000089556897288553860710000005773524418056317832_);fill:#FFFFFF;" width="0.1" height="4.73"/>
					
						<rect x="7.34" y="3.8" style="clip-path:url(#SVGID_00000089556897288553860710000005773524418056317832_);fill:#FFFFFF;" width="0.1" height="4.73"/>
					
						<rect x="7.45" y="3.8" style="clip-path:url(#SVGID_00000089556897288553860710000005773524418056317832_);fill:#FFFFFF;" width="0.1" height="4.73"/>
					
						<rect x="7.55" y="3.8" style="clip-path:url(#SVGID_00000089556897288553860710000005773524418056317832_);fill:#FFFFFF;" width="0.1" height="4.73"/>
					
						<rect x="7.66" y="3.8" style="clip-path:url(#SVGID_00000089556897288553860710000005773524418056317832_);fill:#FFFFFF;" width="0.1" height="4.73"/>
					
						<rect x="7.76" y="3.8" style="clip-path:url(#SVGID_00000089556897288553860710000005773524418056317832_);fill:#FFFFFF;" width="0.1" height="4.73"/>
					
						<rect x="7.86" y="3.8" style="clip-path:url(#SVGID_00000089556897288553860710000005773524418056317832_);fill:#FFFFFF;" width="0.1" height="4.73"/>
					
						<rect x="7.97" y="3.8" style="clip-path:url(#SVGID_00000089556897288553860710000005773524418056317832_);fill:#FFFFFF;" width="0.1" height="4.73"/>
					
						<rect x="8.07" y="3.8" style="clip-path:url(#SVGID_00000089556897288553860710000005773524418056317832_);fill:#FFFFFF;" width="0.1" height="4.73"/>
					
						<rect x="8.18" y="3.8" style="clip-path:url(#SVGID_00000089556897288553860710000005773524418056317832_);fill:#FFFFFF;" width="0.1" height="4.73"/>
					
						<rect x="8.28" y="3.8" style="clip-path:url(#SVGID_00000089556897288553860710000005773524418056317832_);fill:#FFFFFF;" width="0.1" height="4.73"/>
					
						<rect x="8.38" y="3.8" style="clip-path:url(#SVGID_00000089556897288553860710000005773524418056317832_);fill:#FFFFFF;" width="0.1" height="4.73"/>
					
						<rect x="8.49" y="3.8" style="clip-path:url(#SVGID_00000089556897288553860710000005773524418056317832_);fill:#FFFFFF;" width="0.1" height="4.73"/>
					
						<rect x="8.59" y="3.8" style="clip-path:url(#SVGID_00000089556897288553860710000005773524418056317832_);fill:#FFFFFF;" width="0.1" height="4.73"/>
					
						<rect x="8.7" y="3.8" style="clip-path:url(#SVGID_00000089556897288553860710000005773524418056317832_);fill:#FFFFFF;" width="0.1" height="4.73"/>
					
						<rect x="8.8" y="3.8" style="clip-path:url(#SVGID_00000089556897288553860710000005773524418056317832_);fill:#FFFFFF;" width="0.1" height="4.73"/>
					
						<rect x="8.9" y="3.8" style="clip-path:url(#SVGID_00000089556897288553860710000005773524418056317832_);fill:#FFFFFF;" width="0.1" height="4.73"/>
					
						<rect x="9.01" y="3.8" style="clip-path:url(#SVGID_00000089556897288553860710000005773524418056317832_);fill:#FFFFFF;" width="0.1" height="4.73"/>
					
						<rect x="9.11" y="3.8" style="clip-path:url(#SVGID_00000089556897288553860710000005773524418056317832_);fill:#FFFFFF;" width="0.1" height="4.73"/>
					
						<rect x="9.22" y="3.8" style="clip-path:url(#SVGID_00000089556897288553860710000005773524418056317832_);fill:#FFFFFF;" width="0.1" height="4.73"/>
					
						<rect x="9.32" y="3.8" style="clip-path:url(#SVGID_00000089556897288553860710000005773524418056317832_);fill:#FFFFFF;" width="0.1" height="4.73"/>
					
						<rect x="9.42" y="3.8" style="clip-path:url(#SVGID_00000089556897288553860710000005773524418056317832_);fill:#FFFFFF;" width="0.1" height="4.73"/>
					
						<rect x="9.53" y="3.8" style="clip-path:url(#SVGID_00000089556897288553860710000005773524418056317832_);fill:#FFFFFF;" width="0.1" height="4.73"/>
					
						<rect x="9.63" y="3.8" style="clip-path:url(#SVGID_00000089556897288553860710000005773524418056317832_);fill:#FFFFFF;" width="0.1" height="4.73"/>
					
						<rect x="9.74" y="3.8" style="clip-path:url(#SVGID_00000089556897288553860710000005773524418056317832_);fill:#FFFFFF;" width="0.1" height="4.73"/>
					
						<rect x="9.84" y="3.8" style="clip-path:url(#SVGID_00000089556897288553860710000005773524418056317832_);fill:#FFFFFF;" width="0.1" height="4.73"/>
					
						<rect x="9.94" y="3.8" style="clip-path:url(#SVGID_00000089556897288553860710000005773524418056317832_);fill:#FFFFFF;" width="0.1" height="4.73"/>
					
						<rect x="10.05" y="3.8" style="clip-path:url(#SVGID_00000089556897288553860710000005773524418056317832_);fill:#FFFFFF;" width="0.1" height="4.73"/>
					
						<rect x="10.15" y="3.8" style="clip-path:url(#SVGID_00000089556897288553860710000005773524418056317832_);fill:#FFFFFF;" width="0.1" height="4.73"/>
					
						<rect x="10.26" y="3.8" style="clip-path:url(#SVGID_00000089556897288553860710000005773524418056317832_);fill:#FFFFFF;" width="0.1" height="4.73"/>
					
						<rect x="10.36" y="3.8" style="clip-path:url(#SVGID_00000089556897288553860710000005773524418056317832_);fill:#FFFFFF;" width="0.1" height="4.73"/>
					
						<rect x="10.46" y="3.8" style="clip-path:url(#SVGID_00000089556897288553860710000005773524418056317832_);fill:#FFFFFF;" width="0.1" height="4.73"/>
					
						<rect x="10.57" y="3.8" style="clip-path:url(#SVGID_00000089556897288553860710000005773524418056317832_);fill:#FFFFFF;" width="0.1" height="4.73"/>
					
						<rect x="10.67" y="3.8" style="clip-path:url(#SVGID_00000089556897288553860710000005773524418056317832_);fill:#FFFFFF;" width="0.1" height="4.73"/>
					
						<rect x="10.78" y="3.8" style="clip-path:url(#SVGID_00000089556897288553860710000005773524418056317832_);fill:#FFFFFF;" width="0.1" height="4.73"/>
					
						<rect x="10.88" y="3.8" style="clip-path:url(#SVGID_00000089556897288553860710000005773524418056317832_);fill:#FFFFFF;" width="0.1" height="4.73"/>
					
						<rect x="10.99" y="3.8" style="clip-path:url(#SVGID_00000089556897288553860710000005773524418056317832_);fill:#FFFFFF;" width="0.1" height="4.73"/>
					
						<rect x="11.09" y="3.8" style="clip-path:url(#SVGID_00000089556897288553860710000005773524418056317832_);fill:#FFFFFF;" width="0.1" height="4.73"/>
					
						<rect x="11.19" y="3.8" style="clip-path:url(#SVGID_00000089556897288553860710000005773524418056317832_);fill:#FFFFFF;" width="0.1" height="4.73"/>
					
						<rect x="11.3" y="3.8" style="clip-path:url(#SVGID_00000089556897288553860710000005773524418056317832_);fill:#FFFFFF;" width="0.1" height="4.73"/>
					
						<rect x="11.4" y="3.8" style="clip-path:url(#SVGID_00000089556897288553860710000005773524418056317832_);fill:#FFFFFF;" width="0.1" height="4.73"/>
					
						<rect x="11.51" y="3.8" style="clip-path:url(#SVGID_00000089556897288553860710000005773524418056317832_);fill:#FFFFFF;" width="0.1" height="4.73"/>
					
						<rect x="11.61" y="3.8" style="clip-path:url(#SVGID_00000089556897288553860710000005773524418056317832_);fill:#FFFFFF;" width="0.1" height="4.73"/>
					
						<rect x="11.71" y="3.8" style="clip-path:url(#SVGID_00000089556897288553860710000005773524418056317832_);fill:#FFFFFF;" width="0.1" height="4.73"/>
					
						<rect x="11.82" y="3.8" style="clip-path:url(#SVGID_00000089556897288553860710000005773524418056317832_);fill:#FFFFFF;" width="0.1" height="4.73"/>
					
						<rect x="11.92" y="3.8" style="clip-path:url(#SVGID_00000089556897288553860710000005773524418056317832_);fill:#FFFFFF;" width="0.1" height="4.73"/>
					
						<rect x="12.03" y="3.8" style="clip-path:url(#SVGID_00000089556897288553860710000005773524418056317832_);fill:#FFFFFF;" width="0.1" height="4.73"/>
					
						<rect x="12.13" y="3.8" style="clip-path:url(#SVGID_00000089556897288553860710000005773524418056317832_);fill:#FFFFFF;" width="0.1" height="4.73"/>
					
						<rect x="12.23" y="3.8" style="clip-path:url(#SVGID_00000089556897288553860710000005773524418056317832_);fill:#FFFFFF;" width="0.1" height="4.73"/>
					
						<rect x="12.34" y="3.8" style="clip-path:url(#SVGID_00000089556897288553860710000005773524418056317832_);fill:#FFFFFF;" width="0.1" height="4.73"/>
					
						<rect x="12.44" y="3.8" style="clip-path:url(#SVGID_00000089556897288553860710000005773524418056317832_);fill:#FFFFFF;" width="0.1" height="4.73"/>
					
						<rect x="12.55" y="3.8" style="clip-path:url(#SVGID_00000089556897288553860710000005773524418056317832_);fill:#FFFFFF;" width="0.1" height="4.73"/>
					
						<rect x="12.65" y="3.8" style="clip-path:url(#SVGID_00000089556897288553860710000005773524418056317832_);fill:#FFFFFF;" width="0.1" height="4.73"/>
					
						<rect x="12.75" y="3.8" style="clip-path:url(#SVGID_00000089556897288553860710000005773524418056317832_);fill:#FFFFFF;" width="0.1" height="4.73"/>
					
						<rect x="12.86" y="3.8" style="clip-path:url(#SVGID_00000089556897288553860710000005773524418056317832_);fill:#FFFFFF;" width="0.1" height="4.73"/>
					
						<rect x="12.96" y="3.8" style="clip-path:url(#SVGID_00000089556897288553860710000005773524418056317832_);fill:#FFFFFF;" width="0.1" height="4.73"/>
					
						<rect x="13.07" y="3.8" style="clip-path:url(#SVGID_00000089556897288553860710000005773524418056317832_);fill:#FFFFFF;" width="0.1" height="4.73"/>
					
						<rect x="13.17" y="3.8" style="clip-path:url(#SVGID_00000089556897288553860710000005773524418056317832_);fill:#FFFFFF;" width="0.1" height="4.73"/>
					
						<rect x="13.27" y="3.8" style="clip-path:url(#SVGID_00000089556897288553860710000005773524418056317832_);fill:#FFFFFF;" width="0.1" height="4.73"/>
					
						<rect x="13.38" y="3.8" style="clip-path:url(#SVGID_00000089556897288553860710000005773524418056317832_);fill:#FFFFFF;" width="0.1" height="4.73"/>
					
						<rect x="13.48" y="3.8" style="clip-path:url(#SVGID_00000089556897288553860710000005773524418056317832_);fill:#FFFFFF;" width="0.1" height="4.73"/>
					
						<rect x="13.59" y="3.8" style="clip-path:url(#SVGID_00000089556897288553860710000005773524418056317832_);fill:#FFFFFF;" width="0.1" height="4.73"/>
					
						<rect x="13.69" y="3.8" style="clip-path:url(#SVGID_00000089556897288553860710000005773524418056317832_);fill:#FFFFFF;" width="0.1" height="4.73"/>
					
						<rect x="13.79" y="3.8" style="clip-path:url(#SVGID_00000089556897288553860710000005773524418056317832_);fill:#FFFFFF;" width="0.1" height="4.73"/>
					
						<rect x="13.9" y="3.8" style="clip-path:url(#SVGID_00000089556897288553860710000005773524418056317832_);fill:#FFFFFF;" width="0.1" height="4.73"/>
					
						<rect x="14" y="3.8" style="clip-path:url(#SVGID_00000089556897288553860710000005773524418056317832_);fill:#FFFFFF;" width="0.1" height="4.73"/>
					
						<rect x="14.11" y="3.8" style="clip-path:url(#SVGID_00000089556897288553860710000005773524418056317832_);fill:#FFFFFF;" width="0.1" height="4.73"/>
					
						<rect x="14.21" y="3.8" style="clip-path:url(#SVGID_00000089556897288553860710000005773524418056317832_);fill:#FFFFFF;" width="0.1" height="4.73"/>
					
						<rect x="14.31" y="3.8" style="clip-path:url(#SVGID_00000089556897288553860710000005773524418056317832_);fill:#FFFFFF;" width="0.1" height="4.73"/>
					
						<rect x="14.42" y="3.8" style="clip-path:url(#SVGID_00000089556897288553860710000005773524418056317832_);fill:#FFFFFF;" width="0.1" height="4.73"/>
					
						<rect x="14.52" y="3.8" style="clip-path:url(#SVGID_00000089556897288553860710000005773524418056317832_);fill:#FFFFFF;" width="0.1" height="4.73"/>
					
						<rect x="14.63" y="3.8" style="clip-path:url(#SVGID_00000089556897288553860710000005773524418056317832_);fill:#FFFFFF;" width="0.1" height="4.73"/>
					
						<rect x="14.73" y="3.8" style="clip-path:url(#SVGID_00000089556897288553860710000005773524418056317832_);fill:#FFFFFF;" width="0.1" height="4.73"/>
					
						<rect x="14.83" y="3.8" style="clip-path:url(#SVGID_00000089556897288553860710000005773524418056317832_);fill:#FFFFFF;" width="0.1" height="4.73"/>
					
						<rect x="14.94" y="3.8" style="clip-path:url(#SVGID_00000089556897288553860710000005773524418056317832_);fill:#FFFFFF;" width="0.1" height="4.73"/>
					
						<rect x="15.04" y="3.8" style="clip-path:url(#SVGID_00000089556897288553860710000005773524418056317832_);fill:#FFFFFF;" width="0.1" height="4.73"/>
					
						<rect x="15.15" y="3.8" style="clip-path:url(#SVGID_00000089556897288553860710000005773524418056317832_);fill:#FFFFFF;" width="0.1" height="4.73"/>
					
						<rect x="15.25" y="3.8" style="clip-path:url(#SVGID_00000089556897288553860710000005773524418056317832_);fill:#FFFFFF;" width="0.1" height="4.73"/>
					
						<rect x="15.35" y="3.8" style="clip-path:url(#SVGID_00000089556897288553860710000005773524418056317832_);fill:#FFFFFF;" width="0.1" height="4.73"/>
					
						<rect x="15.46" y="3.8" style="clip-path:url(#SVGID_00000089556897288553860710000005773524418056317832_);fill:#FFFFFF;" width="0.1" height="4.73"/>
					
						<rect x="15.56" y="3.8" style="clip-path:url(#SVGID_00000089556897288553860710000005773524418056317832_);fill:#FFFFFF;" width="0.1" height="4.73"/>
					
						<rect x="15.67" y="3.8" style="clip-path:url(#SVGID_00000089556897288553860710000005773524418056317832_);fill:#FFFFFF;" width="0.1" height="4.73"/>
					
						<rect x="15.77" y="3.8" style="clip-path:url(#SVGID_00000089556897288553860710000005773524418056317832_);fill:#FFFFFF;" width="0.1" height="4.73"/>
					
						<rect x="15.87" y="3.8" style="clip-path:url(#SVGID_00000089556897288553860710000005773524418056317832_);fill:#FFFFFF;" width="0.1" height="4.73"/>
					
						<rect x="15.98" y="3.8" style="clip-path:url(#SVGID_00000089556897288553860710000005773524418056317832_);fill:#FFFFFF;" width="0.1" height="4.73"/>
					
						<rect x="16.08" y="3.8" style="clip-path:url(#SVGID_00000089556897288553860710000005773524418056317832_);fill:#FFFFFF;" width="0.1" height="4.73"/>
					
						<rect x="16.19" y="3.8" style="clip-path:url(#SVGID_00000089556897288553860710000005773524418056317832_);fill:#FFFFFF;" width="0.1" height="4.73"/>
					
						<rect x="16.29" y="3.8" style="clip-path:url(#SVGID_00000089556897288553860710000005773524418056317832_);fill:#FFFFFF;" width="0.1" height="4.73"/>
					
						<rect x="16.39" y="3.8" style="clip-path:url(#SVGID_00000089556897288553860710000005773524418056317832_);fill:#FFFFFF;" width="0.1" height="4.73"/>
					
						<rect x="16.5" y="3.8" style="clip-path:url(#SVGID_00000089556897288553860710000005773524418056317832_);fill:#FFFFFF;" width="0.1" height="4.73"/>
					
						<rect x="16.6" y="3.8" style="clip-path:url(#SVGID_00000089556897288553860710000005773524418056317832_);fill:#FFFFFF;" width="0.1" height="4.73"/>
					
						<rect x="16.71" y="3.8" style="clip-path:url(#SVGID_00000089556897288553860710000005773524418056317832_);fill:#FFFFFF;" width="0.1" height="4.73"/>
					
						<rect x="16.81" y="3.8" style="clip-path:url(#SVGID_00000089556897288553860710000005773524418056317832_);fill:#FFFFFF;" width="0.1" height="4.73"/>
					
						<rect x="16.91" y="3.8" style="clip-path:url(#SVGID_00000089556897288553860710000005773524418056317832_);fill:#FFFFFF;" width="0.1" height="4.73"/>
					
						<rect x="17.02" y="3.8" style="clip-path:url(#SVGID_00000089556897288553860710000005773524418056317832_);fill:#FFFFFF;" width="0" height="4.73"/>
					
						<rect x="5.2" y="4.14" style="clip-path:url(#SVGID_00000089556897288553860710000005773524418056317832_);fill:#FFFFFF;" width="0.07" height="4.06"/>
					
						<rect x="5.26" y="4.14" style="clip-path:url(#SVGID_00000089556897288553860710000005773524418056317832_);fill:#FFFFFF;" width="0.1" height="4.06"/>
					
						<rect x="5.37" y="4.14" style="clip-path:url(#SVGID_00000089556897288553860710000005773524418056317832_);fill:#FFFFFF;" width="0.1" height="4.06"/>
					
						<rect x="5.47" y="4.14" style="clip-path:url(#SVGID_00000089556897288553860710000005773524418056317832_);fill:#FFFFFF;" width="0.1" height="4.06"/>
					
						<rect x="5.58" y="4.14" style="clip-path:url(#SVGID_00000089556897288553860710000005773524418056317832_);fill:#FFFFFF;" width="0.1" height="4.06"/>
					
						<rect x="5.68" y="4.14" style="clip-path:url(#SVGID_00000089556897288553860710000005773524418056317832_);fill:#FFFFFF;" width="0.1" height="4.06"/>
					
						<rect x="5.78" y="4.14" style="clip-path:url(#SVGID_00000089556897288553860710000005773524418056317832_);fill:#FFFFFF;" width="0.1" height="4.06"/>
					
						<rect x="5.89" y="4.14" style="clip-path:url(#SVGID_00000089556897288553860710000005773524418056317832_);fill:#FFFFFF;" width="0.1" height="4.06"/>
					
						<rect x="5.99" y="4.14" style="clip-path:url(#SVGID_00000089556897288553860710000005773524418056317832_);fill:#FFFFFF;" width="0.1" height="4.06"/>
					
						<rect x="6.1" y="4.14" style="clip-path:url(#SVGID_00000089556897288553860710000005773524418056317832_);fill:#FFFFFF;" width="0.1" height="4.06"/>
					
						<rect x="6.2" y="4.14" style="clip-path:url(#SVGID_00000089556897288553860710000005773524418056317832_);fill:#FFFFFF;" width="0.1" height="4.06"/>
					
						<rect x="6.3" y="4.14" style="clip-path:url(#SVGID_00000089556897288553860710000005773524418056317832_);fill:#FFFFFF;" width="0.1" height="4.06"/>
					
						<rect x="6.41" y="4.14" style="clip-path:url(#SVGID_00000089556897288553860710000005773524418056317832_);fill:#FFFFFF;" width="0.1" height="4.06"/>
					
						<rect x="6.51" y="4.14" style="clip-path:url(#SVGID_00000089556897288553860710000005773524418056317832_);fill:#FFFFFF;" width="0.1" height="4.06"/>
					
						<rect x="6.62" y="4.14" style="clip-path:url(#SVGID_00000089556897288553860710000005773524418056317832_);fill:#FFFFFF;" width="0.1" height="4.06"/>
					
						<rect x="6.72" y="4.14" style="clip-path:url(#SVGID_00000089556897288553860710000005773524418056317832_);fill:#FFFFFF;" width="0.1" height="4.06"/>
					
						<rect x="6.82" y="4.14" style="clip-path:url(#SVGID_00000089556897288553860710000005773524418056317832_);fill:#FFFFFF;" width="0.1" height="4.06"/>
					
						<rect x="6.93" y="4.14" style="clip-path:url(#SVGID_00000089556897288553860710000005773524418056317832_);fill:#FFFFFF;" width="0.1" height="4.06"/>
					
						<rect x="7.03" y="4.14" style="clip-path:url(#SVGID_00000089556897288553860710000005773524418056317832_);fill:#FFFFFF;" width="0.1" height="4.06"/>
					
						<rect x="7.14" y="4.14" style="clip-path:url(#SVGID_00000089556897288553860710000005773524418056317832_);fill:#FFFFFF;" width="0.1" height="4.06"/>
					
						<rect x="7.24" y="4.14" style="clip-path:url(#SVGID_00000089556897288553860710000005773524418056317832_);fill:#FFFFFF;" width="0.1" height="4.06"/>
					
						<rect x="7.34" y="4.14" style="clip-path:url(#SVGID_00000089556897288553860710000005773524418056317832_);fill:#FFFFFF;" width="0.1" height="4.06"/>
					
						<rect x="7.45" y="4.14" style="clip-path:url(#SVGID_00000089556897288553860710000005773524418056317832_);fill:#FFFFFF;" width="0.1" height="4.06"/>
					
						<rect x="7.55" y="4.14" style="clip-path:url(#SVGID_00000089556897288553860710000005773524418056317832_);fill:#FFFFFF;" width="0.1" height="4.06"/>
					
						<rect x="7.66" y="4.14" style="clip-path:url(#SVGID_00000089556897288553860710000005773524418056317832_);fill:#FFFFFF;" width="0.1" height="4.06"/>
					
						<rect x="7.76" y="4.14" style="clip-path:url(#SVGID_00000089556897288553860710000005773524418056317832_);fill:#FFFFFF;" width="0.1" height="4.06"/>
					
						<rect x="7.86" y="4.14" style="clip-path:url(#SVGID_00000089556897288553860710000005773524418056317832_);fill:#FFFFFF;" width="0.1" height="4.06"/>
					
						<rect x="7.97" y="4.14" style="clip-path:url(#SVGID_00000089556897288553860710000005773524418056317832_);fill:#FFFFFF;" width="0.1" height="4.06"/>
					
						<rect x="8.07" y="4.14" style="clip-path:url(#SVGID_00000089556897288553860710000005773524418056317832_);fill:#FFFFFF;" width="0.1" height="4.06"/>
					
						<rect x="8.18" y="4.14" style="clip-path:url(#SVGID_00000089556897288553860710000005773524418056317832_);fill:#FFFFFF;" width="0.1" height="4.06"/>
					
						<rect x="8.28" y="4.14" style="clip-path:url(#SVGID_00000089556897288553860710000005773524418056317832_);fill:#FFFFFF;" width="0.1" height="4.06"/>
					
						<rect x="8.38" y="4.14" style="clip-path:url(#SVGID_00000089556897288553860710000005773524418056317832_);fill:#FFFFFF;" width="0.1" height="4.06"/>
					
						<rect x="8.49" y="4.14" style="clip-path:url(#SVGID_00000089556897288553860710000005773524418056317832_);fill:#FFFFFF;" width="0.1" height="4.06"/>
					
						<rect x="8.59" y="4.14" style="clip-path:url(#SVGID_00000089556897288553860710000005773524418056317832_);fill:#FFFFFF;" width="0.1" height="4.06"/>
					
						<rect x="8.7" y="4.14" style="clip-path:url(#SVGID_00000089556897288553860710000005773524418056317832_);fill:#FFFFFF;" width="0.1" height="4.06"/>
					
						<rect x="8.8" y="4.14" style="clip-path:url(#SVGID_00000089556897288553860710000005773524418056317832_);fill:#FFFFFF;" width="0.1" height="4.06"/>
					
						<rect x="8.9" y="4.14" style="clip-path:url(#SVGID_00000089556897288553860710000005773524418056317832_);fill:#FFFFFF;" width="0.1" height="4.06"/>
					
						<rect x="9.01" y="4.14" style="clip-path:url(#SVGID_00000089556897288553860710000005773524418056317832_);fill:#FFFFFF;" width="0.1" height="4.06"/>
					
						<rect x="9.11" y="4.14" style="clip-path:url(#SVGID_00000089556897288553860710000005773524418056317832_);fill:#FFFFFF;" width="0.1" height="4.06"/>
					
						<rect x="9.22" y="4.14" style="clip-path:url(#SVGID_00000089556897288553860710000005773524418056317832_);fill:#FFFFFF;" width="0.1" height="4.06"/>
					
						<rect x="9.32" y="4.14" style="clip-path:url(#SVGID_00000089556897288553860710000005773524418056317832_);fill:#FFFFFF;" width="0.1" height="4.06"/>
					
						<rect x="9.42" y="4.14" style="clip-path:url(#SVGID_00000089556897288553860710000005773524418056317832_);fill:#FFFFFF;" width="0.1" height="4.06"/>
					
						<rect x="9.53" y="4.14" style="clip-path:url(#SVGID_00000089556897288553860710000005773524418056317832_);fill:#FFFFFF;" width="0.1" height="4.06"/>
					
						<rect x="9.63" y="4.14" style="clip-path:url(#SVGID_00000089556897288553860710000005773524418056317832_);fill:#FFFFFF;" width="0.1" height="4.06"/>
					
						<rect x="9.74" y="4.14" style="clip-path:url(#SVGID_00000089556897288553860710000005773524418056317832_);fill:#FFFFFF;" width="0.1" height="4.06"/>
					
						<rect x="9.84" y="4.14" style="clip-path:url(#SVGID_00000089556897288553860710000005773524418056317832_);fill:#FFFFFF;" width="0.1" height="4.06"/>
					
						<rect x="9.94" y="4.14" style="clip-path:url(#SVGID_00000089556897288553860710000005773524418056317832_);fill:#FFFFFF;" width="0.1" height="4.06"/>
					
						<rect x="10.05" y="4.14" style="clip-path:url(#SVGID_00000089556897288553860710000005773524418056317832_);fill:#FFFFFF;" width="0.1" height="4.06"/>
					
						<rect x="10.15" y="4.14" style="clip-path:url(#SVGID_00000089556897288553860710000005773524418056317832_);fill:#FFFFFF;" width="0.1" height="4.06"/>
					
						<rect x="10.26" y="4.14" style="clip-path:url(#SVGID_00000089556897288553860710000005773524418056317832_);fill:#FFFFFF;" width="0.1" height="4.06"/>
					
						<rect x="10.36" y="4.14" style="clip-path:url(#SVGID_00000089556897288553860710000005773524418056317832_);fill:#FFFFFF;" width="0.1" height="4.06"/>
					
						<rect x="10.46" y="4.14" style="clip-path:url(#SVGID_00000089556897288553860710000005773524418056317832_);fill:#FFFFFF;" width="0.1" height="4.06"/>
					
						<rect x="10.57" y="4.14" style="clip-path:url(#SVGID_00000089556897288553860710000005773524418056317832_);fill:#FFFFFF;" width="0.1" height="4.06"/>
					
						<rect x="10.67" y="4.14" style="clip-path:url(#SVGID_00000089556897288553860710000005773524418056317832_);fill:#FFFFFF;" width="0.1" height="4.06"/>
					
						<rect x="10.78" y="4.14" style="clip-path:url(#SVGID_00000089556897288553860710000005773524418056317832_);fill:#FFFFFF;" width="0.1" height="4.06"/>
					
						<rect x="10.88" y="4.14" style="clip-path:url(#SVGID_00000089556897288553860710000005773524418056317832_);fill:#FFFFFF;" width="0.1" height="4.06"/>
					
						<rect x="10.99" y="4.14" style="clip-path:url(#SVGID_00000089556897288553860710000005773524418056317832_);fill:#FFFFFF;" width="0.1" height="4.06"/>
					
						<rect x="11.09" y="4.14" style="clip-path:url(#SVGID_00000089556897288553860710000005773524418056317832_);fill:#FFFFFF;" width="0.1" height="4.06"/>
					
						<rect x="11.19" y="4.14" style="clip-path:url(#SVGID_00000089556897288553860710000005773524418056317832_);fill:#FFFFFF;" width="0.1" height="4.06"/>
					
						<rect x="11.3" y="4.14" style="clip-path:url(#SVGID_00000089556897288553860710000005773524418056317832_);fill:#FFFFFF;" width="0.1" height="4.06"/>
					
						<rect x="11.4" y="4.14" style="clip-path:url(#SVGID_00000089556897288553860710000005773524418056317832_);fill:#FFFFFF;" width="0.1" height="4.06"/>
					
						<rect x="11.51" y="4.14" style="clip-path:url(#SVGID_00000089556897288553860710000005773524418056317832_);fill:#FFFFFF;" width="0.1" height="4.06"/>
					
						<rect x="11.61" y="4.14" style="clip-path:url(#SVGID_00000089556897288553860710000005773524418056317832_);fill:#FFFFFF;" width="0.1" height="4.06"/>
					
						<rect x="11.71" y="4.14" style="clip-path:url(#SVGID_00000089556897288553860710000005773524418056317832_);fill:#FFFFFF;" width="0.1" height="4.06"/>
					
						<rect x="11.82" y="4.14" style="clip-path:url(#SVGID_00000089556897288553860710000005773524418056317832_);fill:#FFFFFF;" width="0.1" height="4.06"/>
					
						<rect x="11.92" y="4.14" style="clip-path:url(#SVGID_00000089556897288553860710000005773524418056317832_);fill:#FFFFFF;" width="0.1" height="4.06"/>
					
						<rect x="12.03" y="4.14" style="clip-path:url(#SVGID_00000089556897288553860710000005773524418056317832_);fill:#FFFFFF;" width="0.1" height="4.06"/>
					
						<rect x="12.13" y="4.14" style="clip-path:url(#SVGID_00000089556897288553860710000005773524418056317832_);fill:#FFFFFF;" width="0.1" height="4.06"/>
					
						<rect x="12.23" y="4.14" style="clip-path:url(#SVGID_00000089556897288553860710000005773524418056317832_);fill:#FFFFFF;" width="0.1" height="4.06"/>
					
						<rect x="12.34" y="4.14" style="clip-path:url(#SVGID_00000089556897288553860710000005773524418056317832_);fill:#FFFFFF;" width="0.1" height="4.06"/>
					
						<rect x="12.44" y="4.14" style="clip-path:url(#SVGID_00000089556897288553860710000005773524418056317832_);fill:#FFFFFF;" width="0.1" height="4.06"/>
					
						<rect x="12.55" y="4.14" style="clip-path:url(#SVGID_00000089556897288553860710000005773524418056317832_);fill:#FFFFFF;" width="0.1" height="4.06"/>
					
						<rect x="12.65" y="4.14" style="clip-path:url(#SVGID_00000089556897288553860710000005773524418056317832_);fill:#FFFFFF;" width="0.1" height="4.06"/>
					
						<rect x="12.75" y="4.14" style="clip-path:url(#SVGID_00000089556897288553860710000005773524418056317832_);fill:#FFFFFF;" width="0.1" height="4.06"/>
					
						<rect x="12.86" y="4.14" style="clip-path:url(#SVGID_00000089556897288553860710000005773524418056317832_);fill:#FFFFFF;" width="0.1" height="4.06"/>
					
						<rect x="12.96" y="4.14" style="clip-path:url(#SVGID_00000089556897288553860710000005773524418056317832_);fill:#FFFFFF;" width="0.1" height="4.06"/>
					
						<rect x="13.07" y="4.14" style="clip-path:url(#SVGID_00000089556897288553860710000005773524418056317832_);fill:#FFFFFF;" width="0.1" height="4.06"/>
					
						<rect x="13.17" y="4.14" style="clip-path:url(#SVGID_00000089556897288553860710000005773524418056317832_);fill:#FFFFFF;" width="0.1" height="4.06"/>
					
						<rect x="13.27" y="4.14" style="clip-path:url(#SVGID_00000089556897288553860710000005773524418056317832_);fill:#FFFFFF;" width="0.1" height="4.06"/>
					
						<rect x="13.38" y="4.14" style="clip-path:url(#SVGID_00000089556897288553860710000005773524418056317832_);fill:#FFFFFF;" width="0.1" height="4.06"/>
					
						<rect x="13.48" y="4.14" style="clip-path:url(#SVGID_00000089556897288553860710000005773524418056317832_);fill:#FFFFFF;" width="0.1" height="4.06"/>
					
						<rect x="13.59" y="4.14" style="clip-path:url(#SVGID_00000089556897288553860710000005773524418056317832_);fill:#FFFFFF;" width="0.1" height="4.06"/>
					
						<rect x="13.69" y="4.14" style="clip-path:url(#SVGID_00000089556897288553860710000005773524418056317832_);fill:#FFFFFF;" width="0.1" height="4.06"/>
					
						<rect x="13.79" y="4.14" style="clip-path:url(#SVGID_00000089556897288553860710000005773524418056317832_);fill:#FFFFFF;" width="0.1" height="4.06"/>
					
						<rect x="13.9" y="4.14" style="clip-path:url(#SVGID_00000089556897288553860710000005773524418056317832_);fill:#FFFFFF;" width="0.1" height="4.06"/>
					
						<rect x="14" y="4.14" style="clip-path:url(#SVGID_00000089556897288553860710000005773524418056317832_);fill:#FFFFFF;" width="0.1" height="4.06"/>
					
						<rect x="14.11" y="4.14" style="clip-path:url(#SVGID_00000089556897288553860710000005773524418056317832_);fill:#FFFFFF;" width="0.1" height="4.06"/>
					
						<rect x="14.21" y="4.14" style="clip-path:url(#SVGID_00000089556897288553860710000005773524418056317832_);fill:#FFFFFF;" width="0.1" height="4.06"/>
					
						<rect x="14.31" y="4.14" style="clip-path:url(#SVGID_00000089556897288553860710000005773524418056317832_);fill:#FFFFFF;" width="0.1" height="4.06"/>
					
						<rect x="14.42" y="4.14" style="clip-path:url(#SVGID_00000089556897288553860710000005773524418056317832_);fill:#FFFFFF;" width="0.1" height="4.06"/>
					
						<rect x="14.52" y="4.14" style="clip-path:url(#SVGID_00000089556897288553860710000005773524418056317832_);fill:#FFFFFF;" width="0.1" height="4.06"/>
					
						<rect x="14.63" y="4.14" style="clip-path:url(#SVGID_00000089556897288553860710000005773524418056317832_);fill:#FFFFFF;" width="0.1" height="4.06"/>
					
						<rect x="14.73" y="4.14" style="clip-path:url(#SVGID_00000089556897288553860710000005773524418056317832_);fill:#FFFFFF;" width="0.1" height="4.06"/>
					
						<rect x="14.83" y="4.14" style="clip-path:url(#SVGID_00000089556897288553860710000005773524418056317832_);fill:#FFFFFF;" width="0.1" height="4.06"/>
					
						<rect x="14.94" y="4.14" style="clip-path:url(#SVGID_00000089556897288553860710000005773524418056317832_);fill:#FFFFFF;" width="0.1" height="4.06"/>
					
						<rect x="15.04" y="4.14" style="clip-path:url(#SVGID_00000089556897288553860710000005773524418056317832_);fill:#FFFFFF;" width="0.1" height="4.06"/>
					
						<rect x="15.15" y="4.14" style="clip-path:url(#SVGID_00000089556897288553860710000005773524418056317832_);fill:#FFFFFF;" width="0.1" height="4.06"/>
					
						<rect x="15.25" y="4.14" style="clip-path:url(#SVGID_00000089556897288553860710000005773524418056317832_);fill:#FFFFFF;" width="0.1" height="4.06"/>
					
						<rect x="15.35" y="4.14" style="clip-path:url(#SVGID_00000089556897288553860710000005773524418056317832_);fill:#FFFFFF;" width="0.1" height="4.06"/>
					
						<rect x="15.46" y="4.14" style="clip-path:url(#SVGID_00000089556897288553860710000005773524418056317832_);fill:#FFFFFF;" width="0.1" height="4.06"/>
					
						<rect x="15.56" y="4.14" style="clip-path:url(#SVGID_00000089556897288553860710000005773524418056317832_);fill:#FFFFFF;" width="0.1" height="4.06"/>
					
						<rect x="15.67" y="4.14" style="clip-path:url(#SVGID_00000089556897288553860710000005773524418056317832_);fill:#FFFFFF;" width="0.05" height="4.06"/>
				</g>
			</g>
		</g>
		<g>
			<path class="st2" d="M27.15,3.8c0,2.61-2.12,4.73-4.73,4.73h-3.91V21.9c-0.25-2.57-2.21-4.65-4.73-5.11V8.55
				c0.01-0.08,0.02-0.16,0.03-0.23c0.29-2.04,1.65-3.74,3.5-4.52H27.15z"/>
		</g>
		<g>
			<path class="st2" d="M18.51,21.9v6.29c-1.31,0-2.49-0.53-3.35-1.39c-0.86-0.86-1.39-2.04-1.39-3.35v-6.67
				c2.45,0.44,4.36,2.41,4.7,4.87C18.49,21.74,18.5,21.82,18.51,21.9z"/>
		</g>
	</g>
</g>
</svg>
