<?xml version="1.0" encoding="utf-8"?>
<!-- Generator: Adobe Illustrator 26.0.1, SVG Export Plug-In . SVG Version: 6.00 Build 0)  -->
<svg version="1.1" id="Layer_1" xmlns="http://www.w3.org/2000/svg" xmlns:xlink="http://www.w3.org/1999/xlink" x="0px" y="0px"
	 viewBox="0 0 128 128" style="enable-background:new 0 0 128 128;" xml:space="preserve">
<style type="text/css">
	.st0{fill:url(#SVGID_1_);}
	.st1{clip-path:url(#SVGID_00000096031801627060889290000002232687012931053201_);fill:#FFFFFF;}
	.st2{fill:#FFFFFF;}
</style>
<g>
	<g>
		<linearGradient id="SVGID_1_" gradientUnits="userSpaceOnUse" x1="0" y1="64" x2="128" y2="64">
			<stop  offset="0" style="stop-color:#287175"/>
			<stop  offset="0.2705" style="stop-color:#349398"/>
			<stop  offset="0.7637" style="stop-color:#47CDD3"/>
			<stop  offset="1" style="stop-color:#4FE3EA"/>
		</linearGradient>
		<path class="st0" d="M123.92,128H4.08C1.83,128,0,126.17,0,123.92V4.08C0,1.83,1.83,0,4.08,0h119.83c2.26,0,4.08,1.83,4.08,4.08
			v119.83C128,126.17,126.17,128,123.92,128z"/>
	</g>
	<g>
		<g>
			<g>
				<g>
					<defs>
						<path id="SVGID_00000099661611663819495970000010759076495555792795_" d="M62.78,13.41c-5.74,4.05-9.65,10.26-10.72,17.29
							H17.94c0.34-4.46,2.24-8.61,5.43-11.81c3.54-3.54,8.24-5.49,13.25-5.49H62.78 M68.34,11.97H36.62
							c-5.57,0-10.62,2.26-14.27,5.91c-3.65,3.65-5.91,8.69-5.91,14.27h36.88C54.25,23.03,60.18,15.38,68.34,11.97L68.34,11.97z"/>
					</defs>
					<use xlink:href="#SVGID_00000099661611663819495970000010759076495555792795_"  style="overflow:visible;fill:#FFFFFF;"/>
					<clipPath id="SVGID_00000125585582550750893490000014905583451378295198_">
						<use xlink:href="#SVGID_00000099661611663819495970000010759076495555792795_"  style="overflow:visible;"/>
					</clipPath>
					<path style="clip-path:url(#SVGID_00000125585582550750893490000014905583451378295198_);fill:#FFFFFF;" d="M16.44,11.97v20.18
						V11.97z"/>
					
						<rect x="16.44" y="11.97" style="clip-path:url(#SVGID_00000125585582550750893490000014905583451378295198_);fill:#FFFFFF;" width="0.44" height="20.18"/>
					
						<rect x="16.89" y="11.97" style="clip-path:url(#SVGID_00000125585582550750893490000014905583451378295198_);fill:#FFFFFF;" width="0.44" height="20.18"/>
					
						<rect x="17.33" y="11.97" style="clip-path:url(#SVGID_00000125585582550750893490000014905583451378295198_);fill:#FFFFFF;" width="0.44" height="20.18"/>
					
						<rect x="17.77" y="11.97" style="clip-path:url(#SVGID_00000125585582550750893490000014905583451378295198_);fill:#FFFFFF;" width="0.44" height="20.18"/>
					
						<rect x="18.22" y="11.97" style="clip-path:url(#SVGID_00000125585582550750893490000014905583451378295198_);fill:#FFFFFF;" width="0.44" height="20.18"/>
					
						<rect x="18.66" y="11.97" style="clip-path:url(#SVGID_00000125585582550750893490000014905583451378295198_);fill:#FFFFFF;" width="0.44" height="20.18"/>
					
						<rect x="19.1" y="11.97" style="clip-path:url(#SVGID_00000125585582550750893490000014905583451378295198_);fill:#FFFFFF;" width="0.44" height="20.18"/>
					
						<rect x="19.55" y="11.97" style="clip-path:url(#SVGID_00000125585582550750893490000014905583451378295198_);fill:#FFFFFF;" width="0.44" height="20.18"/>
					
						<rect x="19.99" y="11.97" style="clip-path:url(#SVGID_00000125585582550750893490000014905583451378295198_);fill:#FFFFFF;" width="0.44" height="20.18"/>
					
						<rect x="20.44" y="11.97" style="clip-path:url(#SVGID_00000125585582550750893490000014905583451378295198_);fill:#FFFFFF;" width="0.44" height="20.18"/>
					
						<rect x="20.88" y="11.97" style="clip-path:url(#SVGID_00000125585582550750893490000014905583451378295198_);fill:#FFFFFF;" width="0.44" height="20.18"/>
					
						<rect x="21.32" y="11.97" style="clip-path:url(#SVGID_00000125585582550750893490000014905583451378295198_);fill:#FFFFFF;" width="0.44" height="20.18"/>
					
						<rect x="21.77" y="11.97" style="clip-path:url(#SVGID_00000125585582550750893490000014905583451378295198_);fill:#FFFFFF;" width="0.44" height="20.18"/>
					
						<rect x="22.21" y="11.97" style="clip-path:url(#SVGID_00000125585582550750893490000014905583451378295198_);fill:#FFFFFF;" width="0.44" height="20.18"/>
					
						<rect x="22.65" y="11.97" style="clip-path:url(#SVGID_00000125585582550750893490000014905583451378295198_);fill:#FFFFFF;" width="0.44" height="20.18"/>
					
						<rect x="23.1" y="11.97" style="clip-path:url(#SVGID_00000125585582550750893490000014905583451378295198_);fill:#FFFFFF;" width="0.44" height="20.18"/>
					
						<rect x="23.54" y="11.97" style="clip-path:url(#SVGID_00000125585582550750893490000014905583451378295198_);fill:#FFFFFF;" width="0.44" height="20.18"/>
					
						<rect x="23.98" y="11.97" style="clip-path:url(#SVGID_00000125585582550750893490000014905583451378295198_);fill:#FFFFFF;" width="0.44" height="20.18"/>
					
						<rect x="24.43" y="11.97" style="clip-path:url(#SVGID_00000125585582550750893490000014905583451378295198_);fill:#FFFFFF;" width="0.44" height="20.18"/>
					
						<rect x="24.87" y="11.97" style="clip-path:url(#SVGID_00000125585582550750893490000014905583451378295198_);fill:#FFFFFF;" width="0.44" height="20.18"/>
					
						<rect x="25.32" y="11.97" style="clip-path:url(#SVGID_00000125585582550750893490000014905583451378295198_);fill:#FFFFFF;" width="0.44" height="20.18"/>
					
						<rect x="25.76" y="11.97" style="clip-path:url(#SVGID_00000125585582550750893490000014905583451378295198_);fill:#FFFFFF;" width="0.44" height="20.18"/>
					
						<rect x="26.2" y="11.97" style="clip-path:url(#SVGID_00000125585582550750893490000014905583451378295198_);fill:#FFFFFF;" width="0.44" height="20.18"/>
					
						<rect x="26.65" y="11.97" style="clip-path:url(#SVGID_00000125585582550750893490000014905583451378295198_);fill:#FFFFFF;" width="0.44" height="20.18"/>
					
						<rect x="27.09" y="11.97" style="clip-path:url(#SVGID_00000125585582550750893490000014905583451378295198_);fill:#FFFFFF;" width="0.44" height="20.18"/>
					
						<rect x="27.53" y="11.97" style="clip-path:url(#SVGID_00000125585582550750893490000014905583451378295198_);fill:#FFFFFF;" width="0.44" height="20.18"/>
					
						<rect x="27.98" y="11.97" style="clip-path:url(#SVGID_00000125585582550750893490000014905583451378295198_);fill:#FFFFFF;" width="0.44" height="20.18"/>
					
						<rect x="28.42" y="11.97" style="clip-path:url(#SVGID_00000125585582550750893490000014905583451378295198_);fill:#FFFFFF;" width="0.44" height="20.18"/>
					
						<rect x="28.86" y="11.97" style="clip-path:url(#SVGID_00000125585582550750893490000014905583451378295198_);fill:#FFFFFF;" width="0.44" height="20.18"/>
					
						<rect x="29.31" y="11.97" style="clip-path:url(#SVGID_00000125585582550750893490000014905583451378295198_);fill:#FFFFFF;" width="0.44" height="20.18"/>
					
						<rect x="29.75" y="11.97" style="clip-path:url(#SVGID_00000125585582550750893490000014905583451378295198_);fill:#FFFFFF;" width="0.44" height="20.18"/>
					
						<rect x="30.19" y="11.97" style="clip-path:url(#SVGID_00000125585582550750893490000014905583451378295198_);fill:#FFFFFF;" width="0.44" height="20.18"/>
					
						<rect x="30.64" y="11.97" style="clip-path:url(#SVGID_00000125585582550750893490000014905583451378295198_);fill:#FFFFFF;" width="0.44" height="20.18"/>
					
						<rect x="31.08" y="11.97" style="clip-path:url(#SVGID_00000125585582550750893490000014905583451378295198_);fill:#FFFFFF;" width="0.44" height="20.18"/>
					
						<rect x="31.53" y="11.97" style="clip-path:url(#SVGID_00000125585582550750893490000014905583451378295198_);fill:#FFFFFF;" width="0.44" height="20.18"/>
					
						<rect x="31.97" y="11.97" style="clip-path:url(#SVGID_00000125585582550750893490000014905583451378295198_);fill:#FFFFFF;" width="0.44" height="20.18"/>
					
						<rect x="32.41" y="11.97" style="clip-path:url(#SVGID_00000125585582550750893490000014905583451378295198_);fill:#FFFFFF;" width="0.44" height="20.18"/>
					
						<rect x="32.86" y="11.97" style="clip-path:url(#SVGID_00000125585582550750893490000014905583451378295198_);fill:#FFFFFF;" width="0.44" height="20.18"/>
					
						<rect x="33.3" y="11.97" style="clip-path:url(#SVGID_00000125585582550750893490000014905583451378295198_);fill:#FFFFFF;" width="0.44" height="20.18"/>
					
						<rect x="33.74" y="11.97" style="clip-path:url(#SVGID_00000125585582550750893490000014905583451378295198_);fill:#FFFFFF;" width="0.44" height="20.18"/>
					
						<rect x="34.19" y="11.97" style="clip-path:url(#SVGID_00000125585582550750893490000014905583451378295198_);fill:#FFFFFF;" width="0.44" height="20.18"/>
					
						<rect x="34.63" y="11.97" style="clip-path:url(#SVGID_00000125585582550750893490000014905583451378295198_);fill:#FFFFFF;" width="0.44" height="20.18"/>
					
						<rect x="35.07" y="11.97" style="clip-path:url(#SVGID_00000125585582550750893490000014905583451378295198_);fill:#FFFFFF;" width="0.44" height="20.18"/>
					
						<rect x="35.52" y="11.97" style="clip-path:url(#SVGID_00000125585582550750893490000014905583451378295198_);fill:#FFFFFF;" width="0.44" height="20.18"/>
					
						<rect x="35.96" y="11.97" style="clip-path:url(#SVGID_00000125585582550750893490000014905583451378295198_);fill:#FFFFFF;" width="0.44" height="20.18"/>
					
						<rect x="36.4" y="11.97" style="clip-path:url(#SVGID_00000125585582550750893490000014905583451378295198_);fill:#FFFFFF;" width="0.44" height="20.18"/>
					
						<rect x="36.85" y="11.97" style="clip-path:url(#SVGID_00000125585582550750893490000014905583451378295198_);fill:#FFFFFF;" width="0.44" height="20.18"/>
					
						<rect x="37.29" y="11.97" style="clip-path:url(#SVGID_00000125585582550750893490000014905583451378295198_);fill:#FFFFFF;" width="0.44" height="20.18"/>
					
						<rect x="37.74" y="11.97" style="clip-path:url(#SVGID_00000125585582550750893490000014905583451378295198_);fill:#FFFFFF;" width="0.44" height="20.18"/>
					
						<rect x="38.18" y="11.97" style="clip-path:url(#SVGID_00000125585582550750893490000014905583451378295198_);fill:#FFFFFF;" width="0.44" height="20.18"/>
					
						<rect x="38.62" y="11.97" style="clip-path:url(#SVGID_00000125585582550750893490000014905583451378295198_);fill:#FFFFFF;" width="0.44" height="20.18"/>
					
						<rect x="39.07" y="11.97" style="clip-path:url(#SVGID_00000125585582550750893490000014905583451378295198_);fill:#FFFFFF;" width="0.44" height="20.18"/>
					
						<rect x="39.51" y="11.97" style="clip-path:url(#SVGID_00000125585582550750893490000014905583451378295198_);fill:#FFFFFF;" width="0.44" height="20.18"/>
					
						<rect x="39.95" y="11.97" style="clip-path:url(#SVGID_00000125585582550750893490000014905583451378295198_);fill:#FFFFFF;" width="0.44" height="20.18"/>
					
						<rect x="40.4" y="11.97" style="clip-path:url(#SVGID_00000125585582550750893490000014905583451378295198_);fill:#FFFFFF;" width="0.44" height="20.18"/>
					
						<rect x="40.84" y="11.97" style="clip-path:url(#SVGID_00000125585582550750893490000014905583451378295198_);fill:#FFFFFF;" width="0.44" height="20.18"/>
					
						<rect x="41.28" y="11.97" style="clip-path:url(#SVGID_00000125585582550750893490000014905583451378295198_);fill:#FFFFFF;" width="0.44" height="20.18"/>
					
						<rect x="41.73" y="11.97" style="clip-path:url(#SVGID_00000125585582550750893490000014905583451378295198_);fill:#FFFFFF;" width="0.44" height="20.18"/>
					
						<rect x="42.17" y="11.97" style="clip-path:url(#SVGID_00000125585582550750893490000014905583451378295198_);fill:#FFFFFF;" width="0.44" height="20.18"/>
					
						<rect x="42.61" y="11.97" style="clip-path:url(#SVGID_00000125585582550750893490000014905583451378295198_);fill:#FFFFFF;" width="0.44" height="20.18"/>
					
						<rect x="43.06" y="11.97" style="clip-path:url(#SVGID_00000125585582550750893490000014905583451378295198_);fill:#FFFFFF;" width="0.44" height="20.18"/>
					
						<rect x="43.5" y="11.97" style="clip-path:url(#SVGID_00000125585582550750893490000014905583451378295198_);fill:#FFFFFF;" width="0.44" height="20.18"/>
					
						<rect x="43.95" y="11.97" style="clip-path:url(#SVGID_00000125585582550750893490000014905583451378295198_);fill:#FFFFFF;" width="0.44" height="20.18"/>
					
						<rect x="44.39" y="11.97" style="clip-path:url(#SVGID_00000125585582550750893490000014905583451378295198_);fill:#FFFFFF;" width="0.44" height="20.18"/>
					
						<rect x="44.83" y="11.97" style="clip-path:url(#SVGID_00000125585582550750893490000014905583451378295198_);fill:#FFFFFF;" width="0.44" height="20.18"/>
					
						<rect x="45.28" y="11.97" style="clip-path:url(#SVGID_00000125585582550750893490000014905583451378295198_);fill:#FFFFFF;" width="0.44" height="20.18"/>
					
						<rect x="45.72" y="11.97" style="clip-path:url(#SVGID_00000125585582550750893490000014905583451378295198_);fill:#FFFFFF;" width="0.44" height="20.18"/>
					
						<rect x="46.16" y="11.97" style="clip-path:url(#SVGID_00000125585582550750893490000014905583451378295198_);fill:#FFFFFF;" width="0.44" height="20.18"/>
					
						<rect x="46.61" y="11.97" style="clip-path:url(#SVGID_00000125585582550750893490000014905583451378295198_);fill:#FFFFFF;" width="0.44" height="20.18"/>
					
						<rect x="47.05" y="11.97" style="clip-path:url(#SVGID_00000125585582550750893490000014905583451378295198_);fill:#FFFFFF;" width="0.44" height="20.18"/>
					
						<rect x="47.49" y="11.97" style="clip-path:url(#SVGID_00000125585582550750893490000014905583451378295198_);fill:#FFFFFF;" width="0.44" height="20.18"/>
					
						<rect x="47.94" y="11.97" style="clip-path:url(#SVGID_00000125585582550750893490000014905583451378295198_);fill:#FFFFFF;" width="0.44" height="20.18"/>
					
						<rect x="48.38" y="11.97" style="clip-path:url(#SVGID_00000125585582550750893490000014905583451378295198_);fill:#FFFFFF;" width="0.44" height="20.18"/>
					
						<rect x="48.82" y="11.97" style="clip-path:url(#SVGID_00000125585582550750893490000014905583451378295198_);fill:#FFFFFF;" width="0.44" height="20.18"/>
					
						<rect x="49.27" y="11.97" style="clip-path:url(#SVGID_00000125585582550750893490000014905583451378295198_);fill:#FFFFFF;" width="0.44" height="20.18"/>
					
						<rect x="49.71" y="11.97" style="clip-path:url(#SVGID_00000125585582550750893490000014905583451378295198_);fill:#FFFFFF;" width="0.44" height="20.18"/>
					
						<rect x="50.16" y="11.97" style="clip-path:url(#SVGID_00000125585582550750893490000014905583451378295198_);fill:#FFFFFF;" width="0.44" height="20.18"/>
					
						<rect x="50.6" y="11.97" style="clip-path:url(#SVGID_00000125585582550750893490000014905583451378295198_);fill:#FFFFFF;" width="0.44" height="20.18"/>
					
						<rect x="51.04" y="11.97" style="clip-path:url(#SVGID_00000125585582550750893490000014905583451378295198_);fill:#FFFFFF;" width="0.44" height="20.18"/>
					
						<rect x="51.49" y="11.97" style="clip-path:url(#SVGID_00000125585582550750893490000014905583451378295198_);fill:#FFFFFF;" width="0.44" height="20.18"/>
					
						<rect x="51.93" y="11.97" style="clip-path:url(#SVGID_00000125585582550750893490000014905583451378295198_);fill:#FFFFFF;" width="0.44" height="20.18"/>
					
						<rect x="52.37" y="11.97" style="clip-path:url(#SVGID_00000125585582550750893490000014905583451378295198_);fill:#FFFFFF;" width="0.44" height="20.18"/>
					
						<rect x="52.82" y="11.97" style="clip-path:url(#SVGID_00000125585582550750893490000014905583451378295198_);fill:#FFFFFF;" width="0.44" height="20.18"/>
					
						<rect x="53.26" y="11.97" style="clip-path:url(#SVGID_00000125585582550750893490000014905583451378295198_);fill:#FFFFFF;" width="0.44" height="20.18"/>
					
						<rect x="53.7" y="11.97" style="clip-path:url(#SVGID_00000125585582550750893490000014905583451378295198_);fill:#FFFFFF;" width="0.44" height="20.18"/>
					
						<rect x="54.15" y="11.97" style="clip-path:url(#SVGID_00000125585582550750893490000014905583451378295198_);fill:#FFFFFF;" width="0.44" height="20.18"/>
					
						<rect x="54.59" y="11.97" style="clip-path:url(#SVGID_00000125585582550750893490000014905583451378295198_);fill:#FFFFFF;" width="0.44" height="20.18"/>
					
						<rect x="55.04" y="11.97" style="clip-path:url(#SVGID_00000125585582550750893490000014905583451378295198_);fill:#FFFFFF;" width="0.44" height="20.18"/>
					
						<rect x="55.48" y="11.97" style="clip-path:url(#SVGID_00000125585582550750893490000014905583451378295198_);fill:#FFFFFF;" width="0.44" height="20.18"/>
					
						<rect x="55.92" y="11.97" style="clip-path:url(#SVGID_00000125585582550750893490000014905583451378295198_);fill:#FFFFFF;" width="0.44" height="20.18"/>
					
						<rect x="56.37" y="11.97" style="clip-path:url(#SVGID_00000125585582550750893490000014905583451378295198_);fill:#FFFFFF;" width="0.44" height="20.18"/>
					
						<rect x="56.81" y="11.97" style="clip-path:url(#SVGID_00000125585582550750893490000014905583451378295198_);fill:#FFFFFF;" width="0.44" height="20.18"/>
					
						<rect x="57.25" y="11.97" style="clip-path:url(#SVGID_00000125585582550750893490000014905583451378295198_);fill:#FFFFFF;" width="0.44" height="20.18"/>
					
						<rect x="57.7" y="11.97" style="clip-path:url(#SVGID_00000125585582550750893490000014905583451378295198_);fill:#FFFFFF;" width="0.44" height="20.18"/>
					
						<rect x="58.14" y="11.97" style="clip-path:url(#SVGID_00000125585582550750893490000014905583451378295198_);fill:#FFFFFF;" width="0.44" height="20.18"/>
					
						<rect x="58.58" y="11.97" style="clip-path:url(#SVGID_00000125585582550750893490000014905583451378295198_);fill:#FFFFFF;" width="0.44" height="20.18"/>
					
						<rect x="59.03" y="11.97" style="clip-path:url(#SVGID_00000125585582550750893490000014905583451378295198_);fill:#FFFFFF;" width="0.44" height="20.18"/>
					
						<rect x="59.47" y="11.97" style="clip-path:url(#SVGID_00000125585582550750893490000014905583451378295198_);fill:#FFFFFF;" width="0.44" height="20.18"/>
					
						<rect x="59.91" y="11.97" style="clip-path:url(#SVGID_00000125585582550750893490000014905583451378295198_);fill:#FFFFFF;" width="0.44" height="20.18"/>
					
						<rect x="60.36" y="11.97" style="clip-path:url(#SVGID_00000125585582550750893490000014905583451378295198_);fill:#FFFFFF;" width="0.44" height="20.18"/>
					
						<rect x="60.8" y="11.97" style="clip-path:url(#SVGID_00000125585582550750893490000014905583451378295198_);fill:#FFFFFF;" width="0.44" height="20.18"/>
					
						<rect x="61.25" y="11.97" style="clip-path:url(#SVGID_00000125585582550750893490000014905583451378295198_);fill:#FFFFFF;" width="0.44" height="20.18"/>
					
						<rect x="61.69" y="11.97" style="clip-path:url(#SVGID_00000125585582550750893490000014905583451378295198_);fill:#FFFFFF;" width="0.44" height="20.18"/>
					
						<rect x="62.13" y="11.97" style="clip-path:url(#SVGID_00000125585582550750893490000014905583451378295198_);fill:#FFFFFF;" width="0.44" height="20.18"/>
					
						<rect x="62.58" y="11.97" style="clip-path:url(#SVGID_00000125585582550750893490000014905583451378295198_);fill:#FFFFFF;" width="0.44" height="20.18"/>
					
						<rect x="63.02" y="11.97" style="clip-path:url(#SVGID_00000125585582550750893490000014905583451378295198_);fill:#FFFFFF;" width="0.44" height="20.18"/>
					
						<rect x="63.46" y="11.97" style="clip-path:url(#SVGID_00000125585582550750893490000014905583451378295198_);fill:#FFFFFF;" width="0.44" height="20.18"/>
					
						<rect x="63.91" y="11.97" style="clip-path:url(#SVGID_00000125585582550750893490000014905583451378295198_);fill:#FFFFFF;" width="0.44" height="20.18"/>
					
						<rect x="64.35" y="11.97" style="clip-path:url(#SVGID_00000125585582550750893490000014905583451378295198_);fill:#FFFFFF;" width="0.44" height="20.18"/>
					
						<rect x="64.79" y="11.97" style="clip-path:url(#SVGID_00000125585582550750893490000014905583451378295198_);fill:#FFFFFF;" width="0.44" height="20.18"/>
					
						<rect x="65.24" y="11.97" style="clip-path:url(#SVGID_00000125585582550750893490000014905583451378295198_);fill:#FFFFFF;" width="0.44" height="20.18"/>
					
						<rect x="65.68" y="11.97" style="clip-path:url(#SVGID_00000125585582550750893490000014905583451378295198_);fill:#FFFFFF;" width="0.44" height="20.18"/>
					
						<rect x="66.12" y="11.97" style="clip-path:url(#SVGID_00000125585582550750893490000014905583451378295198_);fill:#FFFFFF;" width="0.44" height="20.18"/>
					
						<rect x="66.57" y="11.97" style="clip-path:url(#SVGID_00000125585582550750893490000014905583451378295198_);fill:#FFFFFF;" width="0.44" height="20.18"/>
					
						<rect x="67.01" y="11.97" style="clip-path:url(#SVGID_00000125585582550750893490000014905583451378295198_);fill:#FFFFFF;" width="0.44" height="20.18"/>
					
						<rect x="67.46" y="11.97" style="clip-path:url(#SVGID_00000125585582550750893490000014905583451378295198_);fill:#FFFFFF;" width="0.44" height="20.18"/>
					
						<rect x="67.9" y="11.97" style="clip-path:url(#SVGID_00000125585582550750893490000014905583451378295198_);fill:#FFFFFF;" width="0.44" height="20.18"/>
					
						<rect x="68.34" y="11.97" style="clip-path:url(#SVGID_00000125585582550750893490000014905583451378295198_);fill:#FFFFFF;" width="0" height="20.18"/>
					
						<rect x="17.94" y="13.41" style="clip-path:url(#SVGID_00000125585582550750893490000014905583451378295198_);fill:#FFFFFF;" width="0.28" height="17.29"/>
					
						<rect x="18.22" y="13.41" style="clip-path:url(#SVGID_00000125585582550750893490000014905583451378295198_);fill:#FFFFFF;" width="0.44" height="17.29"/>
					
						<rect x="18.66" y="13.41" style="clip-path:url(#SVGID_00000125585582550750893490000014905583451378295198_);fill:#FFFFFF;" width="0.44" height="17.29"/>
					
						<rect x="19.1" y="13.41" style="clip-path:url(#SVGID_00000125585582550750893490000014905583451378295198_);fill:#FFFFFF;" width="0.44" height="17.29"/>
					
						<rect x="19.55" y="13.41" style="clip-path:url(#SVGID_00000125585582550750893490000014905583451378295198_);fill:#FFFFFF;" width="0.44" height="17.29"/>
					
						<rect x="19.99" y="13.41" style="clip-path:url(#SVGID_00000125585582550750893490000014905583451378295198_);fill:#FFFFFF;" width="0.44" height="17.29"/>
					
						<rect x="20.44" y="13.41" style="clip-path:url(#SVGID_00000125585582550750893490000014905583451378295198_);fill:#FFFFFF;" width="0.44" height="17.29"/>
					
						<rect x="20.88" y="13.41" style="clip-path:url(#SVGID_00000125585582550750893490000014905583451378295198_);fill:#FFFFFF;" width="0.44" height="17.29"/>
					
						<rect x="21.32" y="13.41" style="clip-path:url(#SVGID_00000125585582550750893490000014905583451378295198_);fill:#FFFFFF;" width="0.44" height="17.29"/>
					
						<rect x="21.77" y="13.41" style="clip-path:url(#SVGID_00000125585582550750893490000014905583451378295198_);fill:#FFFFFF;" width="0.44" height="17.29"/>
					
						<rect x="22.21" y="13.41" style="clip-path:url(#SVGID_00000125585582550750893490000014905583451378295198_);fill:#FFFFFF;" width="0.44" height="17.29"/>
					
						<rect x="22.65" y="13.41" style="clip-path:url(#SVGID_00000125585582550750893490000014905583451378295198_);fill:#FFFFFF;" width="0.44" height="17.29"/>
					
						<rect x="23.1" y="13.41" style="clip-path:url(#SVGID_00000125585582550750893490000014905583451378295198_);fill:#FFFFFF;" width="0.44" height="17.29"/>
					
						<rect x="23.54" y="13.41" style="clip-path:url(#SVGID_00000125585582550750893490000014905583451378295198_);fill:#FFFFFF;" width="0.44" height="17.29"/>
					
						<rect x="23.98" y="13.41" style="clip-path:url(#SVGID_00000125585582550750893490000014905583451378295198_);fill:#FFFFFF;" width="0.44" height="17.29"/>
					
						<rect x="24.43" y="13.41" style="clip-path:url(#SVGID_00000125585582550750893490000014905583451378295198_);fill:#FFFFFF;" width="0.44" height="17.29"/>
					
						<rect x="24.87" y="13.41" style="clip-path:url(#SVGID_00000125585582550750893490000014905583451378295198_);fill:#FFFFFF;" width="0.44" height="17.29"/>
					
						<rect x="25.32" y="13.41" style="clip-path:url(#SVGID_00000125585582550750893490000014905583451378295198_);fill:#FFFFFF;" width="0.44" height="17.29"/>
					
						<rect x="25.76" y="13.41" style="clip-path:url(#SVGID_00000125585582550750893490000014905583451378295198_);fill:#FFFFFF;" width="0.44" height="17.29"/>
					
						<rect x="26.2" y="13.41" style="clip-path:url(#SVGID_00000125585582550750893490000014905583451378295198_);fill:#FFFFFF;" width="0.44" height="17.29"/>
					
						<rect x="26.65" y="13.41" style="clip-path:url(#SVGID_00000125585582550750893490000014905583451378295198_);fill:#FFFFFF;" width="0.44" height="17.29"/>
					
						<rect x="27.09" y="13.41" style="clip-path:url(#SVGID_00000125585582550750893490000014905583451378295198_);fill:#FFFFFF;" width="0.44" height="17.29"/>
					
						<rect x="27.53" y="13.41" style="clip-path:url(#SVGID_00000125585582550750893490000014905583451378295198_);fill:#FFFFFF;" width="0.44" height="17.29"/>
					
						<rect x="27.98" y="13.41" style="clip-path:url(#SVGID_00000125585582550750893490000014905583451378295198_);fill:#FFFFFF;" width="0.44" height="17.29"/>
					
						<rect x="28.42" y="13.41" style="clip-path:url(#SVGID_00000125585582550750893490000014905583451378295198_);fill:#FFFFFF;" width="0.44" height="17.29"/>
					
						<rect x="28.86" y="13.41" style="clip-path:url(#SVGID_00000125585582550750893490000014905583451378295198_);fill:#FFFFFF;" width="0.44" height="17.29"/>
					
						<rect x="29.31" y="13.41" style="clip-path:url(#SVGID_00000125585582550750893490000014905583451378295198_);fill:#FFFFFF;" width="0.44" height="17.29"/>
					
						<rect x="29.75" y="13.41" style="clip-path:url(#SVGID_00000125585582550750893490000014905583451378295198_);fill:#FFFFFF;" width="0.44" height="17.29"/>
					
						<rect x="30.19" y="13.41" style="clip-path:url(#SVGID_00000125585582550750893490000014905583451378295198_);fill:#FFFFFF;" width="0.44" height="17.29"/>
					
						<rect x="30.64" y="13.41" style="clip-path:url(#SVGID_00000125585582550750893490000014905583451378295198_);fill:#FFFFFF;" width="0.44" height="17.29"/>
					
						<rect x="31.08" y="13.41" style="clip-path:url(#SVGID_00000125585582550750893490000014905583451378295198_);fill:#FFFFFF;" width="0.44" height="17.29"/>
					
						<rect x="31.53" y="13.41" style="clip-path:url(#SVGID_00000125585582550750893490000014905583451378295198_);fill:#FFFFFF;" width="0.44" height="17.29"/>
					
						<rect x="31.97" y="13.41" style="clip-path:url(#SVGID_00000125585582550750893490000014905583451378295198_);fill:#FFFFFF;" width="0.44" height="17.29"/>
					
						<rect x="32.41" y="13.41" style="clip-path:url(#SVGID_00000125585582550750893490000014905583451378295198_);fill:#FFFFFF;" width="0.44" height="17.29"/>
					
						<rect x="32.86" y="13.41" style="clip-path:url(#SVGID_00000125585582550750893490000014905583451378295198_);fill:#FFFFFF;" width="0.44" height="17.29"/>
					
						<rect x="33.3" y="13.41" style="clip-path:url(#SVGID_00000125585582550750893490000014905583451378295198_);fill:#FFFFFF;" width="0.44" height="17.29"/>
					
						<rect x="33.74" y="13.41" style="clip-path:url(#SVGID_00000125585582550750893490000014905583451378295198_);fill:#FFFFFF;" width="0.44" height="17.29"/>
					
						<rect x="34.19" y="13.41" style="clip-path:url(#SVGID_00000125585582550750893490000014905583451378295198_);fill:#FFFFFF;" width="0.44" height="17.29"/>
					
						<rect x="34.63" y="13.41" style="clip-path:url(#SVGID_00000125585582550750893490000014905583451378295198_);fill:#FFFFFF;" width="0.44" height="17.29"/>
					
						<rect x="35.07" y="13.41" style="clip-path:url(#SVGID_00000125585582550750893490000014905583451378295198_);fill:#FFFFFF;" width="0.44" height="17.29"/>
					
						<rect x="35.52" y="13.41" style="clip-path:url(#SVGID_00000125585582550750893490000014905583451378295198_);fill:#FFFFFF;" width="0.44" height="17.29"/>
					
						<rect x="35.96" y="13.41" style="clip-path:url(#SVGID_00000125585582550750893490000014905583451378295198_);fill:#FFFFFF;" width="0.44" height="17.29"/>
					
						<rect x="36.4" y="13.41" style="clip-path:url(#SVGID_00000125585582550750893490000014905583451378295198_);fill:#FFFFFF;" width="0.44" height="17.29"/>
					
						<rect x="36.85" y="13.41" style="clip-path:url(#SVGID_00000125585582550750893490000014905583451378295198_);fill:#FFFFFF;" width="0.44" height="17.29"/>
					
						<rect x="37.29" y="13.41" style="clip-path:url(#SVGID_00000125585582550750893490000014905583451378295198_);fill:#FFFFFF;" width="0.44" height="17.29"/>
					
						<rect x="37.74" y="13.41" style="clip-path:url(#SVGID_00000125585582550750893490000014905583451378295198_);fill:#FFFFFF;" width="0.44" height="17.29"/>
					
						<rect x="38.18" y="13.41" style="clip-path:url(#SVGID_00000125585582550750893490000014905583451378295198_);fill:#FFFFFF;" width="0.44" height="17.29"/>
					
						<rect x="38.62" y="13.41" style="clip-path:url(#SVGID_00000125585582550750893490000014905583451378295198_);fill:#FFFFFF;" width="0.44" height="17.29"/>
					
						<rect x="39.07" y="13.41" style="clip-path:url(#SVGID_00000125585582550750893490000014905583451378295198_);fill:#FFFFFF;" width="0.44" height="17.29"/>
					
						<rect x="39.51" y="13.41" style="clip-path:url(#SVGID_00000125585582550750893490000014905583451378295198_);fill:#FFFFFF;" width="0.44" height="17.29"/>
					
						<rect x="39.95" y="13.41" style="clip-path:url(#SVGID_00000125585582550750893490000014905583451378295198_);fill:#FFFFFF;" width="0.44" height="17.29"/>
					
						<rect x="40.4" y="13.41" style="clip-path:url(#SVGID_00000125585582550750893490000014905583451378295198_);fill:#FFFFFF;" width="0.44" height="17.29"/>
					
						<rect x="40.84" y="13.41" style="clip-path:url(#SVGID_00000125585582550750893490000014905583451378295198_);fill:#FFFFFF;" width="0.44" height="17.29"/>
					
						<rect x="41.28" y="13.41" style="clip-path:url(#SVGID_00000125585582550750893490000014905583451378295198_);fill:#FFFFFF;" width="0.44" height="17.29"/>
					
						<rect x="41.73" y="13.41" style="clip-path:url(#SVGID_00000125585582550750893490000014905583451378295198_);fill:#FFFFFF;" width="0.44" height="17.29"/>
					
						<rect x="42.17" y="13.41" style="clip-path:url(#SVGID_00000125585582550750893490000014905583451378295198_);fill:#FFFFFF;" width="0.44" height="17.29"/>
					
						<rect x="42.61" y="13.41" style="clip-path:url(#SVGID_00000125585582550750893490000014905583451378295198_);fill:#FFFFFF;" width="0.44" height="17.29"/>
					
						<rect x="43.06" y="13.41" style="clip-path:url(#SVGID_00000125585582550750893490000014905583451378295198_);fill:#FFFFFF;" width="0.44" height="17.29"/>
					
						<rect x="43.5" y="13.41" style="clip-path:url(#SVGID_00000125585582550750893490000014905583451378295198_);fill:#FFFFFF;" width="0.44" height="17.29"/>
					
						<rect x="43.95" y="13.41" style="clip-path:url(#SVGID_00000125585582550750893490000014905583451378295198_);fill:#FFFFFF;" width="0.44" height="17.29"/>
					
						<rect x="44.39" y="13.41" style="clip-path:url(#SVGID_00000125585582550750893490000014905583451378295198_);fill:#FFFFFF;" width="0.44" height="17.29"/>
					
						<rect x="44.83" y="13.41" style="clip-path:url(#SVGID_00000125585582550750893490000014905583451378295198_);fill:#FFFFFF;" width="0.44" height="17.29"/>
					
						<rect x="45.28" y="13.41" style="clip-path:url(#SVGID_00000125585582550750893490000014905583451378295198_);fill:#FFFFFF;" width="0.44" height="17.29"/>
					
						<rect x="45.72" y="13.41" style="clip-path:url(#SVGID_00000125585582550750893490000014905583451378295198_);fill:#FFFFFF;" width="0.44" height="17.29"/>
					
						<rect x="46.16" y="13.41" style="clip-path:url(#SVGID_00000125585582550750893490000014905583451378295198_);fill:#FFFFFF;" width="0.44" height="17.29"/>
					
						<rect x="46.61" y="13.41" style="clip-path:url(#SVGID_00000125585582550750893490000014905583451378295198_);fill:#FFFFFF;" width="0.44" height="17.29"/>
					
						<rect x="47.05" y="13.41" style="clip-path:url(#SVGID_00000125585582550750893490000014905583451378295198_);fill:#FFFFFF;" width="0.44" height="17.29"/>
					
						<rect x="47.49" y="13.41" style="clip-path:url(#SVGID_00000125585582550750893490000014905583451378295198_);fill:#FFFFFF;" width="0.44" height="17.29"/>
					
						<rect x="47.94" y="13.41" style="clip-path:url(#SVGID_00000125585582550750893490000014905583451378295198_);fill:#FFFFFF;" width="0.44" height="17.29"/>
					
						<rect x="48.38" y="13.41" style="clip-path:url(#SVGID_00000125585582550750893490000014905583451378295198_);fill:#FFFFFF;" width="0.44" height="17.29"/>
					
						<rect x="48.82" y="13.41" style="clip-path:url(#SVGID_00000125585582550750893490000014905583451378295198_);fill:#FFFFFF;" width="0.44" height="17.29"/>
					
						<rect x="49.27" y="13.41" style="clip-path:url(#SVGID_00000125585582550750893490000014905583451378295198_);fill:#FFFFFF;" width="0.44" height="17.29"/>
					
						<rect x="49.71" y="13.41" style="clip-path:url(#SVGID_00000125585582550750893490000014905583451378295198_);fill:#FFFFFF;" width="0.44" height="17.29"/>
					
						<rect x="50.16" y="13.41" style="clip-path:url(#SVGID_00000125585582550750893490000014905583451378295198_);fill:#FFFFFF;" width="0.44" height="17.29"/>
					
						<rect x="50.6" y="13.41" style="clip-path:url(#SVGID_00000125585582550750893490000014905583451378295198_);fill:#FFFFFF;" width="0.44" height="17.29"/>
					
						<rect x="51.04" y="13.41" style="clip-path:url(#SVGID_00000125585582550750893490000014905583451378295198_);fill:#FFFFFF;" width="0.44" height="17.29"/>
					
						<rect x="51.49" y="13.41" style="clip-path:url(#SVGID_00000125585582550750893490000014905583451378295198_);fill:#FFFFFF;" width="0.44" height="17.29"/>
					
						<rect x="51.93" y="13.41" style="clip-path:url(#SVGID_00000125585582550750893490000014905583451378295198_);fill:#FFFFFF;" width="0.44" height="17.29"/>
					
						<rect x="52.37" y="13.41" style="clip-path:url(#SVGID_00000125585582550750893490000014905583451378295198_);fill:#FFFFFF;" width="0.44" height="17.29"/>
					
						<rect x="52.82" y="13.41" style="clip-path:url(#SVGID_00000125585582550750893490000014905583451378295198_);fill:#FFFFFF;" width="0.44" height="17.29"/>
					
						<rect x="53.26" y="13.41" style="clip-path:url(#SVGID_00000125585582550750893490000014905583451378295198_);fill:#FFFFFF;" width="0.44" height="17.29"/>
					
						<rect x="53.7" y="13.41" style="clip-path:url(#SVGID_00000125585582550750893490000014905583451378295198_);fill:#FFFFFF;" width="0.44" height="17.29"/>
					
						<rect x="54.15" y="13.41" style="clip-path:url(#SVGID_00000125585582550750893490000014905583451378295198_);fill:#FFFFFF;" width="0.44" height="17.29"/>
					
						<rect x="54.59" y="13.41" style="clip-path:url(#SVGID_00000125585582550750893490000014905583451378295198_);fill:#FFFFFF;" width="0.44" height="17.29"/>
					
						<rect x="55.04" y="13.41" style="clip-path:url(#SVGID_00000125585582550750893490000014905583451378295198_);fill:#FFFFFF;" width="0.44" height="17.29"/>
					
						<rect x="55.48" y="13.41" style="clip-path:url(#SVGID_00000125585582550750893490000014905583451378295198_);fill:#FFFFFF;" width="0.44" height="17.29"/>
					
						<rect x="55.92" y="13.41" style="clip-path:url(#SVGID_00000125585582550750893490000014905583451378295198_);fill:#FFFFFF;" width="0.44" height="17.29"/>
					
						<rect x="56.37" y="13.41" style="clip-path:url(#SVGID_00000125585582550750893490000014905583451378295198_);fill:#FFFFFF;" width="0.44" height="17.29"/>
					
						<rect x="56.81" y="13.41" style="clip-path:url(#SVGID_00000125585582550750893490000014905583451378295198_);fill:#FFFFFF;" width="0.44" height="17.29"/>
					
						<rect x="57.25" y="13.41" style="clip-path:url(#SVGID_00000125585582550750893490000014905583451378295198_);fill:#FFFFFF;" width="0.44" height="17.29"/>
					
						<rect x="57.7" y="13.41" style="clip-path:url(#SVGID_00000125585582550750893490000014905583451378295198_);fill:#FFFFFF;" width="0.44" height="17.29"/>
					
						<rect x="58.14" y="13.41" style="clip-path:url(#SVGID_00000125585582550750893490000014905583451378295198_);fill:#FFFFFF;" width="0.44" height="17.29"/>
					
						<rect x="58.58" y="13.41" style="clip-path:url(#SVGID_00000125585582550750893490000014905583451378295198_);fill:#FFFFFF;" width="0.44" height="17.29"/>
					
						<rect x="59.03" y="13.41" style="clip-path:url(#SVGID_00000125585582550750893490000014905583451378295198_);fill:#FFFFFF;" width="0.44" height="17.29"/>
					
						<rect x="59.47" y="13.41" style="clip-path:url(#SVGID_00000125585582550750893490000014905583451378295198_);fill:#FFFFFF;" width="0.44" height="17.29"/>
					
						<rect x="59.91" y="13.41" style="clip-path:url(#SVGID_00000125585582550750893490000014905583451378295198_);fill:#FFFFFF;" width="0.44" height="17.29"/>
					
						<rect x="60.36" y="13.41" style="clip-path:url(#SVGID_00000125585582550750893490000014905583451378295198_);fill:#FFFFFF;" width="0.44" height="17.29"/>
					
						<rect x="60.8" y="13.41" style="clip-path:url(#SVGID_00000125585582550750893490000014905583451378295198_);fill:#FFFFFF;" width="0.44" height="17.29"/>
					
						<rect x="61.25" y="13.41" style="clip-path:url(#SVGID_00000125585582550750893490000014905583451378295198_);fill:#FFFFFF;" width="0.44" height="17.29"/>
					
						<rect x="61.69" y="13.41" style="clip-path:url(#SVGID_00000125585582550750893490000014905583451378295198_);fill:#FFFFFF;" width="0.44" height="17.29"/>
					
						<rect x="62.13" y="13.41" style="clip-path:url(#SVGID_00000125585582550750893490000014905583451378295198_);fill:#FFFFFF;" width="0.44" height="17.29"/>
					
						<rect x="62.58" y="13.41" style="clip-path:url(#SVGID_00000125585582550750893490000014905583451378295198_);fill:#FFFFFF;" width="0.2" height="17.29"/>
				</g>
			</g>
		</g>
		<g>
			<path class="st2" d="M111.56,11.97c0,11.14-9.03,20.18-20.18,20.18H74.69v57C73.6,78.17,65.27,69.3,54.51,67.36V32.23
				c0.03-0.34,0.07-0.67,0.12-1c1.22-8.71,7.03-15.96,14.91-19.27H111.56z"/>
		</g>
		<g>
			<path class="st2" d="M74.69,89.14v26.82c-5.57,0-10.62-2.26-14.27-5.91c-3.65-3.65-5.91-8.69-5.91-14.27V67.36
				c10.43,1.88,18.58,10.27,20.06,20.78C74.61,88.47,74.65,88.81,74.69,89.14z"/>
		</g>
	</g>
</g>
</svg>
