<svg id="Layer_1" data-name="Layer 1" xmlns="http://www.w3.org/2000/svg" xmlns:xlink="http://www.w3.org/1999/xlink" viewBox="0 0 383.34 419.16"><defs><style>.cls-1{fill:none;}.cls-2{clip-path:url(#clip-path);}.cls-3{fill:#287175;}.cls-4{fill:#287276;}.cls-5{fill:#297478;}.cls-6{fill:#297579;}.cls-7{fill:#2a777b;}.cls-8{fill:#2a787c;}.cls-9{fill:#2b797e;}.cls-10{fill:#2b7b7f;}.cls-11{fill:#2c7c80;}.cls-12{fill:#2c7d82;}.cls-13{fill:#2d7f83;}.cls-14{fill:#2d8084;}.cls-15{fill:#2e8186;}.cls-16{fill:#2e8387;}.cls-17{fill:#2f8489;}.cls-18{fill:#2f858a;}.cls-19{fill:#2f878b;}.cls-20{fill:#30888d;}.cls-21{fill:#30898e;}.cls-22{fill:#318b8f;}.cls-23{fill:#318c91;}.cls-24{fill:#328d92;}.cls-25{fill:#328f93;}.cls-26{fill:#339095;}.cls-27{fill:#339196;}.cls-28{fill:#339297;}.cls-29{fill:#349498;}.cls-30{fill:#34959a;}.cls-31{fill:#35969b;}.cls-32{fill:#35979c;}.cls-33{fill:#36999e;}.cls-34{fill:#369a9f;}.cls-35{fill:#369ba0;}.cls-36{fill:#379ca1;}.cls-37{fill:#379da3;}.cls-38{fill:#389fa4;}.cls-39{fill:#38a0a5;}.cls-40{fill:#38a1a6;}.cls-41{fill:#39a2a8;}.cls-42{fill:#39a3a9;}.cls-43{fill:#3aa5aa;}.cls-44{fill:#3aa6ab;}.cls-45{fill:#3aa7ac;}.cls-46{fill:#3ba8ae;}.cls-47{fill:#3ba9af;}.cls-48{fill:#3caab0;}.cls-49{fill:#3cabb1;}.cls-50{fill:#3cadb2;}.cls-51{fill:#3daeb3;}.cls-52{fill:#3dafb4;}.cls-53{fill:#3eb0b6;}.cls-54{fill:#3eb1b7;}.cls-55{fill:#3eb2b8;}.cls-56{fill:#3fb3b9;}.cls-57{fill:#3fb4ba;}.cls-58{fill:#3fb5bb;}.cls-59{fill:#40b6bc;}.cls-60{fill:#40b7bd;}.cls-61{fill:#40b9be;}.cls-62{fill:#41babf;}.cls-63{fill:#41bbc1;}.cls-64{fill:#42bcc2;}.cls-65{fill:#42bdc3;}.cls-66{fill:#42bec4;}.cls-67{fill:#43bfc5;}.cls-68{fill:#43c0c6;}.cls-69{fill:#43c1c7;}.cls-70{fill:#44c2c8;}.cls-71{fill:#44c3c9;}.cls-72{fill:#44c4ca;}.cls-73{fill:#45c4cb;}.cls-74{fill:#45c5cc;}.cls-75{fill:#45c6cd;}.cls-76{fill:#46c7ce;}.cls-77{fill:#46c8ce;}.cls-78{fill:#46c9cf;}.cls-79{fill:#46cad0;}.cls-80{fill:#47cbd1;}.cls-81{fill:#47ccd2;}.cls-82{fill:#47cdd3;}.cls-83{fill:#48cdd4;}.cls-84{fill:#48ced5;}.cls-85{fill:#48cfd6;}.cls-86{fill:#48d0d6;}.cls-87{fill:#49d1d7;}.cls-88{fill:#49d2d8;}.cls-89{fill:#49d2d9;}.cls-90{fill:#4ad3da;}.cls-91{fill:#4ad4db;}.cls-92{fill:#4ad5db;}.cls-93{fill:#4ad5dc;}.cls-94{fill:#4bd6dd;}.cls-95{fill:#4bd7de;}.cls-96{fill:#4bd8de;}.cls-97{fill:#4bd8df;}.cls-98{fill:#4cd9e0;}.cls-99{fill:#4cdae0;}.cls-100{fill:#4cdae1;}.cls-101{fill:#4cdbe2;}.cls-102{fill:#4cdce2;}.cls-103{fill:#4ddce3;}.cls-104{fill:#4ddde4;}.cls-105{fill:#4ddee5;}.cls-106{fill:#4edfe6;}.cls-107{fill:#4ee0e6;}.cls-108{fill:#4ee0e7;}.cls-109{fill:#4ee1e8;}.cls-110{fill:#4fe2e9;}.cls-111{fill:#4fe3ea;}.cls-112{fill:url(#linear-gradient);}.cls-113{fill:url(#linear-gradient-2);}</style><clipPath id="clip-path" transform="translate(-64.33 -46.42)"><path class="cls-1" d="M251.07,52.23a104.78,104.78,0,0,0-43.22,69.7H70.35a75.51,75.51,0,0,1,75.29-69.7H251.07m22.43-5.81H145.64a81.29,81.29,0,0,0-81.31,81.31H213A99.34,99.34,0,0,1,273.5,46.42Z"/></clipPath><linearGradient id="linear-gradient" x1="407.85" y1="201.95" x2="281.55" y2="201.95" gradientUnits="userSpaceOnUse"><stop offset="0" stop-color="#287175"/><stop offset="0.22" stop-color="#2f858a"/><stop offset="0.67" stop-color="#41b9bf"/><stop offset="1" stop-color="#4fe3ea"/></linearGradient><linearGradient id="linear-gradient-2" x1="258.42" y1="269.68" x2="258.42" y2="351.35" gradientUnits="userSpaceOnUse"><stop offset="0" stop-color="#287175"/><stop offset="0.08" stop-color="#2c7c81"/><stop offset="0.51" stop-color="#3fb4b9"/><stop offset="0.83" stop-color="#4bd6dd"/><stop offset="1" stop-color="#4fe3ea"/></linearGradient></defs><g class="cls-2"><path class="cls-3" d="M64.33,46.42v0Z" transform="translate(-64.33 -46.42)"/><rect class="cls-3" width="1.79" height="81.32"/><rect class="cls-4" x="1.79" width="1.79" height="81.32"/><rect class="cls-5" x="3.58" width="1.79" height="81.32"/><rect class="cls-6" x="5.36" width="1.79" height="81.32"/><rect class="cls-7" x="7.15" width="1.79" height="81.32"/><rect class="cls-8" x="8.94" width="1.79" height="81.32"/><rect class="cls-9" x="10.73" width="1.79" height="81.32"/><rect class="cls-10" x="12.51" width="1.79" height="81.32"/><rect class="cls-11" x="14.3" width="1.79" height="81.32"/><rect class="cls-12" x="16.09" width="1.79" height="81.32"/><rect class="cls-13" x="17.88" width="1.79" height="81.32"/><rect class="cls-14" x="19.67" width="1.79" height="81.32"/><rect class="cls-15" x="21.45" width="1.79" height="81.32"/><rect class="cls-16" x="23.24" width="1.79" height="81.32"/><rect class="cls-17" x="25.03" width="1.79" height="81.32"/><rect class="cls-18" x="26.82" width="1.79" height="81.32"/><rect class="cls-19" x="28.6" width="1.79" height="81.32"/><rect class="cls-20" x="30.39" width="1.79" height="81.32"/><rect class="cls-21" x="32.18" width="1.79" height="81.32"/><rect class="cls-22" x="33.97" width="1.79" height="81.32"/><rect class="cls-23" x="35.76" width="1.79" height="81.32"/><rect class="cls-24" x="37.54" width="1.79" height="81.32"/><rect class="cls-25" x="39.33" width="1.79" height="81.32"/><rect class="cls-26" x="41.12" width="1.79" height="81.32"/><rect class="cls-27" x="42.91" width="1.79" height="81.32"/><rect class="cls-28" x="44.7" width="1.79" height="81.32"/><rect class="cls-29" x="46.48" width="1.79" height="81.32"/><rect class="cls-30" x="48.27" width="1.79" height="81.32"/><rect class="cls-31" x="50.06" width="1.79" height="81.32"/><rect class="cls-32" x="51.85" width="1.79" height="81.32"/><rect class="cls-33" x="53.63" width="1.79" height="81.32"/><rect class="cls-34" x="55.42" width="1.79" height="81.32"/><rect class="cls-35" x="57.21" width="1.79" height="81.32"/><rect class="cls-36" x="59" width="1.79" height="81.32"/><rect class="cls-37" x="60.79" width="1.79" height="81.32"/><rect class="cls-38" x="62.57" width="1.79" height="81.32"/><rect class="cls-39" x="64.36" width="1.79" height="81.32"/><rect class="cls-40" x="66.15" width="1.79" height="81.32"/><rect class="cls-41" x="67.94" width="1.79" height="81.32"/><rect class="cls-42" x="69.72" width="1.79" height="81.32"/><rect class="cls-43" x="71.51" width="1.79" height="81.32"/><rect class="cls-44" x="73.3" width="1.79" height="81.32"/><rect class="cls-45" x="75.09" width="1.79" height="81.32"/><rect class="cls-46" x="76.88" width="1.79" height="81.32"/><rect class="cls-47" x="78.66" width="1.79" height="81.32"/><rect class="cls-48" x="80.45" width="1.79" height="81.32"/><rect class="cls-49" x="82.24" width="1.79" height="81.32"/><rect class="cls-50" x="84.03" width="1.79" height="81.32"/><rect class="cls-51" x="85.81" width="1.79" height="81.32"/><rect class="cls-52" x="87.6" width="1.79" height="81.32"/><rect class="cls-53" x="89.39" width="1.79" height="81.32"/><rect class="cls-54" x="91.18" width="1.79" height="81.32"/><rect class="cls-55" x="92.97" width="1.79" height="81.32"/><rect class="cls-56" x="94.75" width="1.79" height="81.32"/><rect class="cls-57" x="96.54" width="1.79" height="81.32"/><rect class="cls-58" x="98.33" width="1.79" height="81.32"/><rect class="cls-59" x="100.12" width="1.79" height="81.32"/><rect class="cls-60" x="101.91" width="1.79" height="81.32"/><rect class="cls-61" x="103.69" width="1.79" height="81.32"/><rect class="cls-62" x="105.48" width="1.79" height="81.32"/><rect class="cls-63" x="107.27" width="1.79" height="81.32"/><rect class="cls-64" x="109.06" width="1.79" height="81.32"/><rect class="cls-65" x="110.84" width="1.79" height="81.32"/><rect class="cls-66" x="112.63" width="1.79" height="81.32"/><rect class="cls-67" x="114.42" width="1.79" height="81.32"/><rect class="cls-68" x="116.21" width="1.79" height="81.32"/><rect class="cls-69" x="118" width="1.79" height="81.32"/><rect class="cls-70" x="119.78" width="1.79" height="81.32"/><rect class="cls-71" x="121.57" width="1.79" height="81.32"/><rect class="cls-72" x="123.36" width="1.79" height="81.32"/><rect class="cls-73" x="125.15" width="1.79" height="81.32"/><rect class="cls-74" x="126.93" width="1.79" height="81.32"/><rect class="cls-75" x="128.72" width="1.79" height="81.32"/><rect class="cls-76" x="130.51" width="1.79" height="81.32"/><rect class="cls-77" x="132.3" width="1.79" height="81.32"/><rect class="cls-78" x="134.09" width="1.79" height="81.32"/><rect class="cls-79" x="135.87" width="1.79" height="81.32"/><rect class="cls-80" x="137.66" width="1.79" height="81.32"/><rect class="cls-81" x="139.45" width="1.79" height="81.32"/><rect class="cls-82" x="141.24" width="1.79" height="81.32"/><rect class="cls-83" x="143.02" width="1.79" height="81.32"/><rect class="cls-84" x="144.81" width="1.79" height="81.32"/><rect class="cls-85" x="146.6" width="1.79" height="81.32"/><rect class="cls-86" x="148.39" width="1.79" height="81.32"/><rect class="cls-87" x="150.18" width="1.79" height="81.32"/><rect class="cls-88" x="151.96" width="1.79" height="81.32"/><rect class="cls-89" x="153.75" width="1.79" height="81.32"/><rect class="cls-90" x="155.54" width="1.79" height="81.32"/><rect class="cls-91" x="157.33" width="1.79" height="81.32"/><rect class="cls-92" x="159.12" width="1.79" height="81.32"/><rect class="cls-93" x="160.9" width="1.79" height="81.32"/><rect class="cls-94" x="162.69" width="1.79" height="81.32"/><rect class="cls-95" x="164.48" width="1.79" height="81.32"/><rect class="cls-96" x="166.27" width="1.79" height="81.32"/><rect class="cls-97" x="168.05" width="1.79" height="81.32"/><rect class="cls-98" x="169.84" width="1.79" height="81.32"/><rect class="cls-99" x="171.63" width="1.79" height="81.32"/><rect class="cls-100" x="173.42" width="1.79" height="81.32"/><rect class="cls-101" x="175.21" width="1.79" height="81.32"/><rect class="cls-102" x="176.99" width="1.79" height="81.32"/><rect class="cls-103" x="178.78" width="1.79" height="81.32"/><rect class="cls-104" x="180.57" width="1.79" height="81.32"/><rect class="cls-104" x="182.36" width="1.79" height="81.32"/><rect class="cls-105" x="184.14" width="1.79" height="81.32"/><rect class="cls-105" x="185.93" width="1.79" height="81.32"/><rect class="cls-106" x="187.72" width="1.79" height="81.32"/><rect class="cls-107" x="189.51" width="1.79" height="81.32"/><rect class="cls-108" x="191.3" width="1.79" height="81.32"/><rect class="cls-108" x="193.08" width="1.79" height="81.32"/><rect class="cls-109" x="194.87" width="1.79" height="81.32"/><rect class="cls-109" x="196.66" width="1.79" height="81.32"/><rect class="cls-110" x="198.45" width="1.79" height="81.32"/><rect class="cls-110" x="200.23" width="1.79" height="81.32"/><rect class="cls-110" x="202.02" width="1.79" height="81.32"/><rect class="cls-111" x="203.81" width="1.79" height="81.32"/><rect class="cls-111" x="205.6" width="1.79" height="81.32"/><rect class="cls-111" x="207.39" width="1.79" height="81.32"/><rect class="cls-111" x="209.17" height="81.32"/><rect class="cls-6" x="6.03" y="5.81" width="1.12" height="69.7"/><rect class="cls-7" x="7.15" y="5.81" width="1.79" height="69.7"/><rect class="cls-8" x="8.94" y="5.81" width="1.79" height="69.7"/><rect class="cls-9" x="10.73" y="5.81" width="1.79" height="69.7"/><rect class="cls-10" x="12.51" y="5.81" width="1.79" height="69.7"/><rect class="cls-11" x="14.3" y="5.81" width="1.79" height="69.7"/><rect class="cls-12" x="16.09" y="5.81" width="1.79" height="69.7"/><rect class="cls-13" x="17.88" y="5.81" width="1.79" height="69.7"/><rect class="cls-14" x="19.67" y="5.81" width="1.79" height="69.7"/><rect class="cls-15" x="21.45" y="5.81" width="1.79" height="69.7"/><rect class="cls-16" x="23.24" y="5.81" width="1.79" height="69.7"/><rect class="cls-17" x="25.03" y="5.81" width="1.79" height="69.7"/><rect class="cls-18" x="26.82" y="5.81" width="1.79" height="69.7"/><rect class="cls-19" x="28.6" y="5.81" width="1.79" height="69.7"/><rect class="cls-20" x="30.39" y="5.81" width="1.79" height="69.7"/><rect class="cls-21" x="32.18" y="5.81" width="1.79" height="69.7"/><rect class="cls-22" x="33.97" y="5.81" width="1.79" height="69.7"/><rect class="cls-23" x="35.76" y="5.81" width="1.79" height="69.7"/><rect class="cls-24" x="37.54" y="5.81" width="1.79" height="69.7"/><rect class="cls-25" x="39.33" y="5.81" width="1.79" height="69.7"/><rect class="cls-26" x="41.12" y="5.81" width="1.79" height="69.7"/><rect class="cls-27" x="42.91" y="5.81" width="1.79" height="69.7"/><rect class="cls-28" x="44.7" y="5.81" width="1.79" height="69.7"/><rect class="cls-29" x="46.48" y="5.81" width="1.79" height="69.7"/><rect class="cls-30" x="48.27" y="5.81" width="1.79" height="69.7"/><rect class="cls-31" x="50.06" y="5.81" width="1.79" height="69.7"/><rect class="cls-32" x="51.85" y="5.81" width="1.79" height="69.7"/><rect class="cls-33" x="53.63" y="5.81" width="1.79" height="69.7"/><rect class="cls-34" x="55.42" y="5.81" width="1.79" height="69.7"/><rect class="cls-35" x="57.21" y="5.81" width="1.79" height="69.7"/><rect class="cls-36" x="59" y="5.81" width="1.79" height="69.7"/><rect class="cls-37" x="60.79" y="5.81" width="1.79" height="69.7"/><rect class="cls-38" x="62.57" y="5.81" width="1.79" height="69.7"/><rect class="cls-39" x="64.36" y="5.81" width="1.79" height="69.7"/><rect class="cls-40" x="66.15" y="5.81" width="1.79" height="69.7"/><rect class="cls-41" x="67.94" y="5.81" width="1.79" height="69.7"/><rect class="cls-42" x="69.72" y="5.81" width="1.79" height="69.7"/><rect class="cls-43" x="71.51" y="5.81" width="1.79" height="69.7"/><rect class="cls-44" x="73.3" y="5.81" width="1.79" height="69.7"/><rect class="cls-45" x="75.09" y="5.81" width="1.79" height="69.7"/><rect class="cls-46" x="76.88" y="5.81" width="1.79" height="69.7"/><rect class="cls-47" x="78.66" y="5.81" width="1.79" height="69.7"/><rect class="cls-48" x="80.45" y="5.81" width="1.79" height="69.7"/><rect class="cls-49" x="82.24" y="5.81" width="1.79" height="69.7"/><rect class="cls-50" x="84.03" y="5.81" width="1.79" height="69.7"/><rect class="cls-51" x="85.81" y="5.81" width="1.79" height="69.7"/><rect class="cls-52" x="87.6" y="5.81" width="1.79" height="69.7"/><rect class="cls-53" x="89.39" y="5.81" width="1.79" height="69.7"/><rect class="cls-54" x="91.18" y="5.81" width="1.79" height="69.7"/><rect class="cls-55" x="92.97" y="5.81" width="1.79" height="69.7"/><rect class="cls-56" x="94.75" y="5.81" width="1.79" height="69.7"/><rect class="cls-57" x="96.54" y="5.81" width="1.79" height="69.7"/><rect class="cls-58" x="98.33" y="5.81" width="1.79" height="69.7"/><rect class="cls-59" x="100.12" y="5.81" width="1.79" height="69.7"/><rect class="cls-60" x="101.91" y="5.81" width="1.79" height="69.7"/><rect class="cls-61" x="103.69" y="5.81" width="1.79" height="69.7"/><rect class="cls-62" x="105.48" y="5.81" width="1.79" height="69.7"/><rect class="cls-63" x="107.27" y="5.81" width="1.79" height="69.7"/><rect class="cls-64" x="109.06" y="5.81" width="1.79" height="69.7"/><rect class="cls-65" x="110.84" y="5.81" width="1.79" height="69.7"/><rect class="cls-66" x="112.63" y="5.81" width="1.79" height="69.7"/><rect class="cls-67" x="114.42" y="5.81" width="1.79" height="69.7"/><rect class="cls-68" x="116.21" y="5.81" width="1.79" height="69.7"/><rect class="cls-69" x="118" y="5.81" width="1.79" height="69.7"/><rect class="cls-70" x="119.78" y="5.81" width="1.79" height="69.7"/><rect class="cls-71" x="121.57" y="5.81" width="1.79" height="69.7"/><rect class="cls-72" x="123.36" y="5.81" width="1.79" height="69.7"/><rect class="cls-73" x="125.15" y="5.81" width="1.79" height="69.7"/><rect class="cls-74" x="126.93" y="5.81" width="1.79" height="69.7"/><rect class="cls-75" x="128.72" y="5.81" width="1.79" height="69.7"/><rect class="cls-76" x="130.51" y="5.81" width="1.79" height="69.7"/><rect class="cls-77" x="132.3" y="5.81" width="1.79" height="69.7"/><rect class="cls-78" x="134.09" y="5.81" width="1.79" height="69.7"/><rect class="cls-79" x="135.87" y="5.81" width="1.79" height="69.7"/><rect class="cls-80" x="137.66" y="5.81" width="1.79" height="69.7"/><rect class="cls-81" x="139.45" y="5.81" width="1.79" height="69.7"/><rect class="cls-82" x="141.24" y="5.81" width="1.79" height="69.7"/><rect class="cls-83" x="143.02" y="5.81" width="1.79" height="69.7"/><rect class="cls-84" x="144.81" y="5.81" width="1.79" height="69.7"/><rect class="cls-85" x="146.6" y="5.81" width="1.79" height="69.7"/><rect class="cls-86" x="148.39" y="5.81" width="1.79" height="69.7"/><rect class="cls-87" x="150.18" y="5.81" width="1.79" height="69.7"/><rect class="cls-88" x="151.96" y="5.81" width="1.79" height="69.7"/><rect class="cls-89" x="153.75" y="5.81" width="1.79" height="69.7"/><rect class="cls-90" x="155.54" y="5.81" width="1.79" height="69.7"/><rect class="cls-91" x="157.33" y="5.81" width="1.79" height="69.7"/><rect class="cls-92" x="159.12" y="5.81" width="1.79" height="69.7"/><rect class="cls-93" x="160.9" y="5.81" width="1.79" height="69.7"/><rect class="cls-94" x="162.69" y="5.81" width="1.79" height="69.7"/><rect class="cls-95" x="164.48" y="5.81" width="1.79" height="69.7"/><rect class="cls-96" x="166.27" y="5.81" width="1.79" height="69.7"/><rect class="cls-97" x="168.05" y="5.81" width="1.79" height="69.7"/><rect class="cls-98" x="169.84" y="5.81" width="1.79" height="69.7"/><rect class="cls-99" x="171.63" y="5.81" width="1.79" height="69.7"/><rect class="cls-100" x="173.42" y="5.81" width="1.79" height="69.7"/><rect class="cls-101" x="175.21" y="5.81" width="1.79" height="69.7"/><rect class="cls-102" x="176.99" y="5.81" width="1.79" height="69.7"/><rect class="cls-103" x="178.78" y="5.81" width="1.79" height="69.7"/><rect class="cls-104" x="180.57" y="5.81" width="1.79" height="69.7"/><rect class="cls-104" x="182.36" y="5.81" width="1.79" height="69.7"/><rect class="cls-105" x="184.14" y="5.81" width="1.79" height="69.7"/><rect class="cls-105" x="185.93" y="5.81" width="0.81" height="69.7"/></g><path class="cls-112" d="M447.67,46.42a81.31,81.31,0,0,1-81.31,81.31H299.08V357.48a99.47,99.47,0,0,0-81.32-87.8V128.09c.14-1.35.29-2.69.49-4a99.4,99.4,0,0,1,60.09-77.65Z" transform="translate(-64.33 -46.42)"/><path class="cls-113" d="M299.08,357.48v108.1a81.31,81.31,0,0,1-81.32-81.31V269.68a99.5,99.5,0,0,1,80.83,83.75C298.78,354.78,298.94,356.12,299.08,357.48Z" transform="translate(-64.33 -46.42)"/></svg>